<svg width="27" height="19" viewBox="0 0 27 19" fill="none" xmlns="http://www.w3.org/2000/svg">
<path d="M25.0887 3.08109H24.0273V3.02079C23.9667 1.05743 22.9051 0 20.964 0H2.12991C1.25036 0 0.734755 0.362528 0.4921 0.664511C0.0978448 1.11774 -0.084028 1.78221 0.0370498 2.5676L1.18955 16.5231C1.18955 17.8825 2.31176 19 3.67643 19H24.027C25.0885 19 25.9378 18.1541 25.9378 17.0969L26.9992 5.04411C27.0297 3.95677 26.1502 3.08075 25.0887 3.08075L25.0887 3.08109ZM4.6164 5.25603C4.6164 5.25603 3.19096 5.19573 3.22125 6.37373L3.6155 15.8585C3.6155 15.8585 3.6155 16.6138 3.00885 16.674C2.463 16.7343 2.34166 16.1605 2.31137 15.949V15.8583L1.21939 2.44624V2.41609C1.18912 2.11411 1.18912 1.69105 1.40126 1.4192C1.55286 1.23806 1.82579 1.14737 2.18974 1.14737H21.0238C22.3582 1.14737 22.9043 1.69103 22.9346 3.05045H14.4426C14.4426 3.05045 13.7754 3.05045 13.3507 3.71497C12.8653 4.50029 12.4105 5.2555 12.4105 5.2555L4.6164 5.25603ZM18.6589 16.7048C15.7169 16.7048 13.2906 14.3183 13.2906 11.3581C13.2906 8.42792 15.6867 6.01137 18.6589 6.01137C21.6008 6.01137 24.0271 8.39782 24.0271 11.3581C23.9966 14.3183 21.6008 16.7048 18.6589 16.7048ZM21.5098 10.935H19.0834V8.51837C19.0834 8.27668 18.871 8.06515 18.6284 8.06515C18.3857 8.06515 18.1733 8.27668 18.1733 8.51837V10.935H15.747C15.5043 10.935 15.2919 11.1465 15.2919 11.3882C15.2919 11.6299 15.5043 11.8414 15.747 11.8414H18.1733V14.2581C18.1733 14.4997 18.3857 14.7113 18.6284 14.7113C18.871 14.7113 19.0834 14.4997 19.0834 14.2581V11.8414H21.5098C21.7524 11.8414 21.9648 11.6299 21.9648 11.3882C21.9646 11.1465 21.7827 10.935 21.5098 10.935Z" fill="black"/>
</svg>
