<svg xmlns="http://www.w3.org/2000/svg" xmlns:xlink="http://www.w3.org/1999/xlink" width="17.987" height="17.996" viewBox="0 0 17.987 17.996">
  <defs>
    <linearGradient id="linear-gradient" x1="0.5" x2="0.5" y2="1" gradientUnits="objectBoundingBox">
      <stop offset="0" stop-color="#fdfdfd"/>
      <stop offset="1" stop-color="#f8f8f8"/>
    </linearGradient>
    <linearGradient id="linear-gradient-2" x1="0.5" x2="0.5" y2="1" gradientUnits="objectBoundingBox">
      <stop offset="0" stop-color="#0093ff"/>
      <stop offset="1" stop-color="#00ffd7"/>
    </linearGradient>
  </defs>
  <g id="Group_2" data-name="Group 2" transform="translate(0 0)">
    <g id="Layer_1">
      <g id="Group">
        <path id="Path_1-2" d="M2.579,15.422A8.748,8.748,0,0,1,0,8.967,8.6,8.6,0,0,1,2.6,2.543,9.009,9.009,0,0,1,9.167,0a8.508,8.508,0,0,1,6.3,2.543,8.687,8.687,0,0,1,2.519,6.373,8.891,8.891,0,0,1-2.537,6.506A8.628,8.628,0,0,1,9.036,18,8.765,8.765,0,0,1,2.579,15.422Z" transform="translate(0 0)" fill="url(#linear-gradient)"/>
      </g>
    </g>
    <g id="Layer_2" transform="translate(6 9)">
      <path id="Path_2" d="M1.131,2.251S2.362,0,3.487,0s2.23,1.966,3.207,3.433c.2.3.334.525.273.555-.229.11-2-1.427-3.054-1.153C2.58,3.182,1.732,4.239,0,3.932" transform="translate(0 0)" fill="url(#linear-gradient-2)"/>
    </g>
  </g>
</svg>
