<svg width="42" height="42" viewBox="0 0 42 42" fill="none" xmlns="http://www.w3.org/2000/svg">
<g filter="url(#filter0_b_55_27)">
<circle cx="21" cy="21" r="21" fill="#9BB8F4" fill-opacity="0.1"/>
<circle cx="21" cy="21" r="20.75" stroke="#EE9736" stroke-width="0.5"/>
<circle cx="21" cy="21" r="20.75" stroke="url(#paint0_linear_55_27)" stroke-width="0.5"/>
</g>
<path fill-rule="evenodd" clip-rule="evenodd" d="M17.6767 11.5836C18.6427 11.5392 18.9507 11.5293 21.4114 11.5293C23.8721 11.5293 24.1801 11.54 25.1452 11.5836C26.1104 11.6273 26.7692 11.7813 27.3457 12.0045C27.9494 12.2326 28.497 12.5892 28.95 13.0504C29.4111 13.5025 29.7669 14.0493 29.9942 14.6538C30.2182 15.2302 30.3714 15.8891 30.4158 16.8526C30.4603 17.8202 30.4702 18.1282 30.4702 20.5881C30.4702 23.0488 30.4595 23.3568 30.4158 24.3228C30.3722 25.2864 30.2182 25.9452 29.9942 26.5217C29.7669 27.1262 29.4105 27.6739 28.95 28.1267C28.497 28.5879 27.9494 28.9437 27.3457 29.1709C26.7692 29.3949 26.1104 29.5481 25.1469 29.5926C24.1801 29.6371 23.8721 29.6469 21.4114 29.6469C18.9507 29.6469 18.6427 29.6362 17.6767 29.5926C16.7131 29.5489 16.0543 29.3949 15.4778 29.1709C14.8733 28.9436 14.3256 28.5873 13.8728 28.1267C13.4119 27.6743 13.0553 27.1268 12.8277 26.5225C12.6045 25.946 12.4514 25.2872 12.4069 24.3236C12.3624 23.356 12.3525 23.048 12.3525 20.5881C12.3525 18.1274 12.3632 17.8194 12.4069 16.8542C12.4505 15.8891 12.6045 15.2302 12.8277 14.6538C13.0556 14.0494 13.4125 13.5019 13.8736 13.0495C14.3257 12.5888 14.8729 12.2321 15.477 12.0045C16.0535 11.7813 16.7123 11.6281 17.6758 11.5836H17.6767ZM25.072 13.2142C24.1167 13.1706 23.8301 13.1615 21.4114 13.1615C18.9927 13.1615 18.7061 13.1706 17.7508 13.2142C16.8671 13.2546 16.3878 13.402 16.0683 13.5264C15.6458 13.6911 15.3436 13.8862 15.0265 14.2033C14.726 14.4957 14.4947 14.8516 14.3496 15.2451C14.2252 15.5646 14.0778 16.0439 14.0375 16.9275C13.9938 17.8828 13.9848 18.1694 13.9848 20.5881C13.9848 23.0068 13.9938 23.2934 14.0375 24.2487C14.0778 25.1324 14.2252 25.6117 14.3496 25.9312C14.4945 26.324 14.726 26.6806 15.0265 26.9729C15.3189 27.2735 15.6755 27.5049 16.0683 27.6499C16.3878 27.7742 16.8671 27.9216 17.7508 27.962C18.7061 28.0056 18.9918 28.0147 21.4114 28.0147C23.8309 28.0147 24.1167 28.0056 25.072 27.962C25.9556 27.9216 26.4349 27.7742 26.7544 27.6499C27.1769 27.4852 27.4791 27.29 27.7962 26.9729C28.0968 26.6806 28.3282 26.324 28.4731 25.9312C28.5975 25.6117 28.7449 25.1324 28.7852 24.2487C28.8289 23.2934 28.838 23.0068 28.838 20.5881C28.838 18.1694 28.8289 17.8828 28.7852 16.9275C28.7449 16.0439 28.5975 15.5646 28.4731 15.2451C28.3084 14.8226 28.1132 14.5204 27.7962 14.2033C27.5038 13.9028 27.1478 13.6715 26.7544 13.5264C26.4349 13.402 25.9556 13.2546 25.072 13.2142ZM20.2543 23.3807C20.9005 23.6497 21.62 23.686 22.29 23.4834C22.96 23.2808 23.5389 22.8519 23.9277 22.27C24.3166 21.688 24.4914 20.9891 24.4222 20.2926C24.353 19.596 24.0442 18.9452 23.5484 18.4511C23.2324 18.1352 22.8502 17.8934 22.4295 17.7429C22.0088 17.5925 21.56 17.5372 21.1153 17.5811C20.6706 17.625 20.2413 17.7669 19.858 17.9966C19.4748 18.2263 19.1473 18.5381 18.899 18.9096C18.6508 19.2811 18.488 19.7031 18.4224 20.145C18.3568 20.587 18.39 21.038 18.5196 21.4656C18.6492 21.8932 18.872 22.2867 19.172 22.6179C19.4719 22.949 19.8416 23.2096 20.2543 23.3807ZM18.1189 17.2957C18.5513 16.8633 19.0646 16.5203 19.6295 16.2863C20.1944 16.0523 20.7999 15.9319 21.4114 15.9319C22.0228 15.9319 22.6283 16.0523 23.1932 16.2863C23.7582 16.5203 24.2715 16.8633 24.7038 17.2957C25.1362 17.728 25.4792 18.2413 25.7132 18.8062C25.9472 19.3712 26.0676 19.9767 26.0676 20.5881C26.0676 21.1996 25.9472 21.8051 25.7132 22.37C25.4792 22.9349 25.1362 23.4482 24.7038 23.8806C23.8306 24.7538 22.6463 25.2444 21.4114 25.2444C20.1764 25.2444 18.9921 24.7538 18.1189 23.8806C17.2457 23.0074 16.7551 21.823 16.7551 20.5881C16.7551 19.3532 17.2457 18.1689 18.1189 17.2957ZM27.1003 16.6253C27.2074 16.5242 27.2932 16.4027 27.3526 16.2679C27.4119 16.133 27.4436 15.9877 27.4457 15.8404C27.4479 15.6931 27.4204 15.5469 27.3651 15.4104C27.3097 15.2739 27.2275 15.15 27.1233 15.0458C27.0192 14.9416 26.8952 14.8595 26.7587 14.8041C26.6222 14.7487 26.476 14.7213 26.3287 14.7234C26.1814 14.7256 26.0361 14.7572 25.9013 14.8166C25.7664 14.8759 25.6449 14.9617 25.5438 15.0688C25.3473 15.2772 25.2396 15.554 25.2438 15.8404C25.248 16.1268 25.3636 16.4004 25.5662 16.6029C25.7688 16.8055 26.0423 16.9211 26.3287 16.9253C26.6151 16.9295 26.8919 16.8219 27.1003 16.6253Z" fill="white"/>
<defs>
<filter id="filter0_b_55_27" x="-40" y="-40" width="122" height="122" filterUnits="userSpaceOnUse" color-interpolation-filters="sRGB">
<feFlood flood-opacity="0" result="BackgroundImageFix"/>
<feGaussianBlur in="BackgroundImage" stdDeviation="20"/>
<feComposite in2="SourceAlpha" operator="in" result="effect1_backgroundBlur_55_27"/>
<feBlend mode="normal" in="SourceGraphic" in2="effect1_backgroundBlur_55_27" result="shape"/>
</filter>
<linearGradient id="paint0_linear_55_27" x1="42" y1="0" x2="0" y2="42" gradientUnits="userSpaceOnUse">
<stop stop-color="#0898FE"/>
<stop offset="1" stop-color="#00F7DA"/>
</linearGradient>
</defs>
</svg>
