<svg width="42" height="42" viewBox="0 0 42 42" fill="none" xmlns="http://www.w3.org/2000/svg">
<g filter="url(#filter0_b_55_23)">
<circle cx="21" cy="21" r="21" fill="#9BB8F4" fill-opacity="0.1"/>
<circle cx="21" cy="21" r="20.75" stroke="#EE9736" stroke-width="0.5"/>
<circle cx="21" cy="21" r="20.75" stroke="url(#paint0_linear_55_23)" stroke-width="0.5"/>
</g>
<path d="M15.1302 16.688C15.1403 16.5877 15.1267 16.4865 15.0907 16.3924C15.0547 16.2983 14.9971 16.214 14.9226 16.1461L13.3843 14.2792V14H18.1591L21.8502 22.1571L25.0949 14H29.6473V14.2792L28.3322 15.5482C28.2764 15.5913 28.2334 15.6486 28.2078 15.7142C28.1821 15.7797 28.1747 15.851 28.1864 15.9205V25.2544C28.1747 25.3238 28.1821 25.3951 28.2078 25.4606C28.2334 25.5262 28.2764 25.5836 28.3322 25.6266L29.6169 26.8965V27.1765H23.1571V26.8973L24.4879 25.5961C24.6189 25.4644 24.6189 25.4256 24.6189 25.2247V17.6795L20.9196 27.1452H20.4205L16.1135 17.6795V24.024C16.0781 24.29 16.1662 24.5593 16.3523 24.752L18.0825 26.8668V27.1452H13.1768V26.8668L14.9062 24.752C14.9977 24.6565 15.0656 24.541 15.1045 24.4146C15.1434 24.2882 15.1522 24.1544 15.1302 24.024V16.688Z" fill="white"/>
<defs>
<filter id="filter0_b_55_23" x="-40" y="-40" width="122" height="122" filterUnits="userSpaceOnUse" color-interpolation-filters="sRGB">
<feFlood flood-opacity="0" result="BackgroundImageFix"/>
<feGaussianBlur in="BackgroundImage" stdDeviation="20"/>
<feComposite in2="SourceAlpha" operator="in" result="effect1_backgroundBlur_55_23"/>
<feBlend mode="normal" in="SourceGraphic" in2="effect1_backgroundBlur_55_23" result="shape"/>
</filter>
<linearGradient id="paint0_linear_55_23" x1="42" y1="0" x2="0" y2="42" gradientUnits="userSpaceOnUse">
<stop stop-color="#0898FE"/>
<stop offset="1" stop-color="#00F7DA"/>
</linearGradient>
</defs>
</svg>
