<svg width="44" height="45" viewBox="0 0 44 45" fill="none" xmlns="http://www.w3.org/2000/svg">
<g filter="url(#filter0_d_225_2736)">
<path fill-rule="evenodd" clip-rule="evenodd" d="M37 19.054C37 28.9653 28.9411 37 19 37C9.05889 37 1 28.9653 1 19.054V17.9983C1 8.08698 9.05889 0.0522461 19 0.0522461C28.9411 0.0522461 37 8.08698 37 17.9983V19.054Z" fill="url(#paint0_linear_225_2736)"/>
</g>
<g clip-path="url(#clip0_225_2736)">
<mask id="mask0_225_2736" style="mask-type:luminance" maskUnits="userSpaceOnUse" x="7" y="6" width="25" height="25">
<path fill-rule="evenodd" clip-rule="evenodd" d="M7 6.20996H31.7059V25.21C31.7059 27.9714 29.4673 30.21 26.7059 30.21H12C9.23858 30.21 7 27.9714 7 25.21V6.20996Z" fill="white"/>
</mask>
<g mask="url(#mask0_225_2736)">
<path fill-rule="evenodd" clip-rule="evenodd" d="M13.1941 19.4597H28.3596C29.0703 19.4597 29.6463 18.9001 29.6463 18.2097C29.6463 17.5194 29.0703 16.9597 28.3596 16.9597H13.1941L18.2765 12.0226C18.7789 11.5344 18.7789 10.7429 18.2765 10.2548C18.2137 10.1938 18.1459 10.1404 18.0746 10.0946C17.5751 9.77426 16.8964 9.82766 16.4567 10.2548L9.17767 17.3258C8.67515 17.814 8.67515 18.6055 9.17767 19.0936L16.4567 26.1647C16.9592 26.6528 17.7739 26.6528 18.2765 26.1647C18.7789 25.6765 18.7789 24.8851 18.2765 24.3969L13.1941 19.4597Z" fill="#15097A"/>
</g>
</g>
<defs>
<filter id="filter0_d_225_2736" x="0" y="0.0522461" width="44" height="44.9478" filterUnits="userSpaceOnUse" color-interpolation-filters="sRGB">
<feFlood flood-opacity="0" result="BackgroundImageFix"/>
<feColorMatrix in="SourceAlpha" type="matrix" values="0 0 0 0 0 0 0 0 0 0 0 0 0 0 0 0 0 0 127 0" result="hardAlpha"/>
<feOffset dx="3" dy="4"/>
<feGaussianBlur stdDeviation="2"/>
<feColorMatrix type="matrix" values="0 0 0 0 0 0 0 0 0 0.278431 0 0 0 0 0.537255 0 0 0 0.25098 0"/>
<feBlend mode="normal" in2="BackgroundImageFix" result="effect1_dropShadow_225_2736"/>
<feBlend mode="normal" in="SourceGraphic" in2="effect1_dropShadow_225_2736" result="shape"/>
</filter>
<linearGradient id="paint0_linear_225_2736" x1="1" y1="0.0522461" x2="1" y2="37" gradientUnits="userSpaceOnUse">
<stop offset="0.374046" stop-color="white"/>
<stop offset="0.885496" stop-color="white"/>
<stop offset="1" stop-color="#B7DFC8"/>
</linearGradient>
<clipPath id="clip0_225_2736">
<rect width="24" height="24.6318" fill="white" transform="translate(7 6.20996)"/>
</clipPath>
</defs>
</svg>
