<svg xmlns="http://www.w3.org/2000/svg" xmlns:xlink="http://www.w3.org/1999/xlink" width="31.94287109375" height="31.9423828125" viewBox="0 0 31.94287109375 31.9423828125" fill="none"><g opacity="1"  transform="translate(0 0)"><g opacity="1"  transform="translate(0 0)"><g opacity="1"  transform="translate(0 0)"><path id="Vector" fill-rule="evenodd" style="fill:#000000" opacity="1" d="M14.4301 18.8201C14.2401 18.8201 14.0501 18.7501 13.9001 18.6001C13.6101 18.3101 13.6101 17.8301 13.9001 17.5401L19.4401 12.0001L13.9001 6.46012C13.6101 6.17012 13.6101 5.69012 13.9001 5.40012C14.1901 5.11012 14.6701 5.11012 14.9601 5.40012L21.0301 11.4701C21.3201 11.7601 21.3201 12.2401 21.0301 12.5301L14.9601 18.6001C14.8101 18.7501 14.6201 18.8201 14.4301 18.8201Z"></path><path id="Vector" fill-rule="evenodd" style="fill:#000000" opacity="1" d="M20.33 12.75L3.5 12.75C3.09 12.75 2.75 12.41 2.75 12C2.75 11.59 3.09 11.25 3.5 11.25L20.33 11.25C20.74 11.25 21.08 11.59 21.08 12C21.08 12.41 20.74 12.75 20.33 12.75Z"></path><path d="M0 0L24 0L24 24L0 24L0 0Z"  ></path></g></g></g></svg>