<svg width="114" height="69" viewBox="0 0 114 69" fill="none" xmlns="http://www.w3.org/2000/svg">
<g clip-path="url(#clip0_1_56)">
<path fill-rule="evenodd" clip-rule="evenodd" d="M32.4258 28.1471C32.1216 27.0696 31.9817 25.9524 32.0108 24.8331H31.9358V12.7701C31.9358 8.67411 30.8798 5.62111 28.8058 3.61011C26.6938 1.59911 23.4128 0.594114 18.9258 0.594114C16.9442 0.577105 14.9687 0.814716 13.0478 1.30111C11.4044 1.67596 9.80983 2.23936 8.29576 2.98011C7.88709 3.15399 7.52527 3.42193 7.23976 3.76211C7.02771 4.16073 6.936 4.61236 6.97576 5.06211V6.88711C6.97576 7.66911 7.23976 8.04111 7.76776 8.04111C7.97179 8.03015 8.17351 7.99249 8.36776 7.92911C8.81771 7.79633 9.25863 7.63466 9.68776 7.44511C11.0137 6.92775 12.3744 6.50437 13.7598 6.17811C15.0935 5.85644 16.4607 5.69398 17.8328 5.69411C20.7358 5.69411 22.7728 6.25411 23.9818 7.40811C25.1538 8.56511 25.7538 10.5351 25.7538 13.3651V16.0901C24.2458 15.7551 22.8178 15.4571 21.4178 15.2711C20.0925 15.0827 18.7563 14.9824 17.4178 14.9711C13.5338 14.9711 10.4788 15.9351 8.17876 17.8711C7.05892 18.8025 6.1674 19.9781 5.57264 21.3077C4.97788 22.6373 4.6957 24.0855 4.74776 25.5411C4.68948 26.8619 4.90753 28.1803 5.38795 29.412C5.86837 30.6437 6.60058 31.7616 7.53776 32.6941C8.55653 33.6153 9.74753 34.3257 11.0421 34.7845C12.3367 35.2432 13.7093 35.4412 15.0808 35.3671C17.1968 35.4043 19.2937 34.9613 21.2139 34.0714C23.134 33.1814 24.8274 31.8678 26.1668 30.2291C26.5818 31.0891 26.9588 31.7961 27.3358 32.4291C27.7312 33.0547 28.186 33.6407 28.6938 34.1791C28.9939 34.486 29.3965 34.6714 29.8248 34.7001C30.1769 34.6855 30.5173 34.5692 30.8048 34.3651L33.1808 32.8011C33.3792 32.684 33.5474 32.5219 33.6717 32.3279C33.7961 32.1338 33.8732 31.9134 33.8968 31.6841C33.8921 31.3795 33.8005 31.0825 33.6328 30.8281C33.1645 29.9656 32.7611 29.0695 32.4258 28.1471ZM20.5856 29.8279C19.3351 30.2576 18.0238 30.4838 16.7016 30.4979C15.9829 30.5503 15.2611 30.4547 14.5808 30.217C13.9006 29.9793 13.2763 29.6046 12.7466 29.1159C12.2503 28.5925 11.8692 27.9708 11.6281 27.2909C11.387 26.611 11.2911 25.8882 11.3466 25.1689C11.2968 24.3602 11.4382 23.5512 11.7592 22.8073C12.0803 22.0633 12.572 21.4055 13.1946 20.8869C14.4386 19.8819 16.2866 19.3979 18.8126 19.3979C19.9978 19.3992 21.1817 19.4737 22.3576 19.6209C23.5248 19.7677 24.6829 19.9791 25.8266 20.254V21.8179C25.8343 22.9095 25.7067 23.9978 25.4466 25.0579C25.2116 25.9422 24.7737 26.7595 24.1676 27.445C23.2005 28.5365 21.9661 29.3577 20.5856 29.8279Z" fill="white"/>
<path d="M46.982 34.5151C46.4752 34.5669 45.9667 34.4349 45.549 34.1431C45.1544 33.7414 44.8798 33.2375 44.756 32.6881L35.895 3.9081C35.7235 3.42694 35.6097 2.92711 35.556 2.4191C35.5387 2.29504 35.5499 2.16865 35.5888 2.04959C35.6277 1.93052 35.6934 1.82193 35.7807 1.7321C35.868 1.64228 35.9747 1.5736 36.0926 1.53131C36.2105 1.48902 36.3365 1.47424 36.461 1.4881H40.156C40.6755 1.42541 41.1998 1.55799 41.627 1.8601C42.0066 2.26593 42.2674 2.76819 42.381 3.3121L48.716 27.9611L54.599 3.3121C54.6771 2.76424 54.9279 2.25557 55.315 1.8601C55.7688 1.58628 56.295 1.45656 56.824 1.4881H59.841C60.3717 1.43273 60.905 1.56429 61.349 1.8601C61.7422 2.25129 61.994 2.76208 62.065 3.3121L68.023 28.2591L74.547 3.3121C74.6674 2.77062 74.9274 2.27006 75.301 1.8601C75.7403 1.58592 76.2542 1.45586 76.771 1.4881H80.278C80.405 1.47012 80.5344 1.4817 80.6562 1.52194C80.778 1.56218 80.8888 1.62999 80.9801 1.72009C81.0713 1.8102 81.1406 1.92015 81.1824 2.0414C81.2242 2.16264 81.2374 2.2919 81.221 2.4191C81.2126 2.62083 81.1875 2.82151 81.146 3.0191C81.0869 3.33691 80.9985 3.64857 80.882 3.9501L71.794 32.7271C71.6796 33.2788 71.404 33.7842 71.002 34.1791C70.5746 34.4488 70.0737 34.5788 69.569 34.5511H66.326C65.7954 34.6065 65.2621 34.4749 64.818 34.1791C64.4254 33.7727 64.1744 33.2505 64.102 32.6901L58.256 8.6741L52.449 32.6531C52.3603 33.2085 52.1114 33.726 51.733 34.1421C51.2868 34.4327 50.7553 34.5638 50.225 34.5141L46.982 34.5151Z" fill="white"/>
<path d="M95.4367 35.52C93.4816 35.5222 91.5329 35.2974 89.6297 34.85C88.126 34.5476 86.6693 34.0465 85.2977 33.36C84.8121 33.1372 84.4035 32.7752 84.1237 32.32C83.9768 31.9911 83.8998 31.6353 83.8977 31.275V29.375C83.8977 28.594 84.1977 28.22 84.7647 28.22C84.9956 28.2208 85.2248 28.2586 85.4437 28.332C85.6697 28.406 86.0097 28.555 86.3867 28.704C87.7199 29.2817 89.1102 29.7175 90.5347 30.004C92.012 30.3001 93.515 30.4498 95.0217 30.451C96.9354 30.5627 98.8422 30.137 100.527 29.222C101.138 28.8603 101.641 28.3425 101.986 27.7218C102.33 27.1011 102.504 26.3998 102.488 25.69C102.501 25.2097 102.417 24.7317 102.242 24.2841C102.067 23.8365 101.805 23.4285 101.47 23.084C100.364 22.1578 99.0609 21.4958 97.6607 21.148L92.1977 19.472C89.8353 18.8755 87.723 17.5451 86.1647 15.672C84.9526 14.1321 84.2892 12.2317 84.2797 10.272C84.2499 8.82978 84.601 7.40518 85.2977 6.14203C85.972 4.94206 86.8962 3.90092 88.0077 3.08903C89.1857 2.20942 90.515 1.55324 91.9297 1.15303C93.4745 0.713732 95.0748 0.500519 96.6807 0.520026C97.5254 0.513957 98.3696 0.563732 99.2077 0.669026C100.075 0.781026 100.867 0.930026 101.659 1.07903C102.413 1.26503 103.13 1.45103 103.808 1.67903C104.358 1.8468 104.888 2.07135 105.392 2.34903C105.835 2.56927 106.221 2.88769 106.523 3.28003C106.768 3.64137 106.887 4.07325 106.862 4.50903V6.25903C106.862 7.04103 106.562 7.45003 105.995 7.45003C105.493 7.39377 105.006 7.24205 104.562 7.00303C102.28 6.00781 99.811 5.51271 97.3217 5.55103C95.5877 5.44813 93.8574 5.80627 92.3067 6.58903C91.7335 6.92325 91.2644 7.41004 90.9515 7.99515C90.6387 8.58027 90.4944 9.24075 90.5347 9.90303C90.5252 10.3987 90.6211 10.8907 90.8161 11.3465C91.0111 11.8024 91.3007 12.2116 91.6657 12.547C92.8926 13.508 94.3048 14.2053 95.8137 14.595L101.168 16.27C103.434 16.8391 105.473 18.0859 107.013 19.844C108.162 21.3364 108.774 23.1735 108.748 25.057C108.767 26.5539 108.431 28.034 107.768 29.376C107.096 30.6535 106.157 31.7712 105.015 32.653C103.767 33.6112 102.345 34.3191 100.829 34.738C99.081 35.2686 97.2632 35.5323 95.4367 35.52Z" fill="white"/>
<path d="M102.612 54.258C90.1927 63.55 72.1487 68.482 56.6347 68.482C35.8625 68.5727 15.819 60.832 0.499741 46.803C-0.667259 45.732 0.389741 44.279 1.78574 45.12C18.8543 55.008 38.2299 60.2166 57.9557 60.22C72.6843 60.1399 87.2493 57.1256 100.8 51.353C102.876 50.397 104.65 52.729 102.612 54.258Z" fill="#FF9900"/>
<path d="M107.783 48.2939C106.198 46.2289 97.2887 47.2999 93.2497 47.7939C92.0417 47.9469 91.8497 46.8759 92.9497 46.0729C100.05 41.0259 111.711 42.4789 113.07 44.1609C114.429 45.8819 112.693 57.6959 106.049 63.3549C105.03 64.2339 104.049 63.7759 104.501 62.6289C106.009 58.8469 109.369 50.3199 107.783 48.2939Z" fill="#FF9900"/>
</g>
<defs>
<clipPath id="clip0_1_56">
<rect width="113.498" height="67.962" fill="white" transform="translate(0 0.520264)"/>
</clipPath>
</defs>
</svg>
