<svg width="1919" height="1047" viewBox="0 0 1919 1047" fill="none" xmlns="http://www.w3.org/2000/svg">
<g opacity="0.06">
<path d="M-145.852 1123L-146.87 1122.96C-142.197 1016.09 -108.771 916.151 -47.5409 825.933C5.99022 747.062 79.5193 677.016 171.002 617.737C250.306 566.354 341.419 524.642 434.492 497.129C519.059 472.133 602.258 459.965 668.771 462.876C732.087 465.646 796.985 483.793 867.195 518.338C929.785 549.141 990.777 589.885 1049.76 629.286C1168.31 708.482 1290.91 790.375 1433.52 796.614C1606.27 804.174 1817.78 717.561 1959.82 581.097C2037.19 506.77 2129.3 384.889 2128.75 226.399L2129.77 226.392C2129.99 291.052 2114.37 355.549 2083.32 418.095C2054.54 476.107 2013.22 531.193 1960.52 581.832C1890.21 649.386 1803.13 705.541 1708.71 744.21C1614.24 782.908 1519.07 801.378 1433.47 797.633C1369.37 794.828 1303.77 776.538 1232.93 741.72C1169.79 710.69 1108.49 669.738 1049.2 630.129C931.389 551.426 809.563 470.046 668.748 463.885C548.246 458.612 347.783 504.398 171.567 618.588C32.8983 708.449 -134.74 868.898 -145.852 1123Z" fill="#091270"/>
<path d="M-146.687 1079.83L-147.725 1079.76C-141.642 980.781 -107.725 888.52 -46.9138 805.539C6.3465 732.862 79.0115 668.575 169.054 614.478C247.3 567.457 337.135 529.537 428.851 504.812C511.628 482.492 593.497 471.818 659.623 474.711C660.173 474.735 660.733 474.76 661.283 474.784C726.344 478.008 792.65 494.738 863.966 525.943C927.553 553.768 989.239 590.287 1048.9 625.605C1168.11 696.196 1291.39 769.179 1436.89 777.23C1611.34 786.924 1815.16 711.323 1956.2 584.745C2031.69 516.99 2123.38 404.265 2131.47 251.959L2132.51 252.015C2129.21 314.051 2111.39 375.135 2079.53 433.543C2049.81 488.014 2008.55 539.153 1956.89 585.521C1887.46 647.836 1801.92 698.885 1709.58 733.134C1617.14 767.42 1522.83 783.041 1436.84 778.268C1371.45 774.652 1304.89 757.636 1233.37 726.258C1169.63 698.294 1107.99 661.797 1048.37 626.501C929.202 555.953 805.978 482.993 661.227 475.822C660.718 475.8 660.179 475.777 659.67 475.754C539.83 470.511 342.369 511.55 169.586 615.369C33.2856 697.271 -132.226 844.321 -146.687 1079.83Z" fill="#091270"/>
<path d="M-147.524 1036.66L-148.581 1036.58C-141.099 945.485 -106.68 860.869 -46.2952 785.085C6.71639 718.56 78.5086 660.001 167.092 611.035C244.322 568.348 332.88 534.198 423.199 512.28C505.609 492.281 587.5 483.2 653.762 486.711C720.727 490.264 788.556 505.529 861.119 533.401C925.826 558.244 988.326 590.625 1048.78 621.937C1168.44 683.923 1292.17 748.017 1440.26 757.865C1587.68 767.672 1754.59 722.419 1886.75 636.804C2030.41 543.743 2118.28 416.145 2134.18 277.529L2135.23 277.647C2127.02 349.346 2099.81 417.959 2054.36 481.58C2012.08 540.767 1955.88 593.283 1887.33 637.687C1822.28 679.825 1747.31 713.161 1670.51 734.099C1593.09 755.204 1513.46 763.792 1440.19 758.913C1291.88 749.045 1168.05 684.896 1048.29 622.864C927.571 560.331 802.74 495.669 653.706 487.76C652.047 487.667 650.357 487.593 648.687 487.52C504.41 481.207 316.271 529.777 167.613 611.955C33.6871 685.982 -129.693 819.746 -147.524 1036.66Z" fill="#091270"/>
<path d="M-148.36 993.499L-149.436 993.38C-140.534 910.2 -105.625 833.249 -45.6668 764.661C7.07399 704.329 78.0028 651.519 165.137 607.694C241.308 569.389 328.589 539.021 417.542 519.87C498.863 502.375 580.065 494.825 646.243 498.629C799.94 507.456 926.604 563.799 1049.1 618.297C1169.08 671.665 1293.15 726.853 1443.63 738.5C1736.08 761.103 2084.41 591.58 2136.88 303.1L2137.95 303.289C2113.74 436.346 2023.6 554.905 1884.11 637.117C1753.96 713.819 1593.39 751.176 1443.55 739.568C1292.88 727.903 1168.73 672.68 1048.67 619.279C926.263 564.825 799.689 508.527 646.186 499.708C502.26 491.41 313.67 534.204 165.626 608.664C34.0949 674.804 -127.153 795.273 -148.36 993.499Z" fill="#091270"/>
<path d="M-149.187 950.336L-150.272 950.186C-139.962 874.925 -104.55 805.63 -45.0195 744.238C7.45978 690.12 77.5144 643.068 163.201 604.364C238.313 570.442 324.306 543.855 411.914 527.471C493.288 512.254 571.713 506.389 638.743 510.536C797.386 520.335 926.099 568.319 1050.57 614.718C1170.56 659.452 1294.62 705.701 1447.01 719.104C1728.07 743.833 2066.28 615.391 2139.6 328.64L2140.66 328.911C2123.86 394.611 2091.8 455.031 2045.37 508.516C2001.67 558.844 1946.33 601.897 1880.89 636.497C1817.78 669.862 1747.8 694.088 1672.87 708.506C1598.16 722.881 1522.13 726.81 1446.9 720.202C1294.37 706.782 1170.22 660.499 1050.16 615.742C925.768 569.366 797.135 521.416 638.655 511.624C495.732 502.789 309.261 539.584 163.627 605.352C34.5086 663.689 -124.598 770.882 -149.187 950.336Z" fill="#091270"/>
<path d="M-150.023 907.172L-151.127 906.981C-139.398 839.64 -103.475 778.021 -44.3809 723.815C7.82533 675.941 77.0063 634.637 161.255 601.043C235.276 571.534 320.002 548.728 406.266 535.092C486.489 522.407 564.267 518.034 631.234 522.454C795.83 533.309 927.242 572.992 1054.33 611.362C1173.68 647.404 1297.11 684.665 1450.38 699.74C1727.63 726.995 2049.11 630.723 2142.33 354.201L2143.39 354.553C2102.15 476.884 2010.27 574.161 1877.69 635.877C1755.3 692.845 1603.51 715.921 1450.27 700.847C1296.9 685.768 1173.42 648.485 1054 612.43C926.981 574.072 795.628 534.413 631.155 523.563C489.104 514.174 304.821 545.012 161.659 602.082C34.922 652.614 -122.044 746.562 -150.023 907.172Z" fill="#091270"/>
<path d="M-150.87 864.018L-151.982 863.775C-138.826 804.385 -102.411 750.422 -43.7438 703.402C8.18901 661.782 76.506 626.236 159.308 597.744C232.228 572.656 315.666 553.631 400.616 542.724C479.668 532.569 556.809 529.688 623.714 534.371C796.884 546.51 926.653 576.66 1064.05 608.593C1181.14 635.8 1302.21 663.937 1453.74 680.364C1790.57 716.87 2049 604.481 2145.04 379.75L2146.08 380.194C2120.65 439.72 2083.74 491.948 2036.36 535.431C1991.46 576.654 1936.98 610.223 1874.44 635.214C1756.12 682.492 1610.6 698.494 1453.61 681.481C1302.01 665.051 1180.9 636.912 1063.77 609.693C926.421 577.772 796.693 547.624 623.614 535.5C480.183 525.458 302.391 549.702 159.649 598.81C35.3318 641.6 -119.486 722.335 -150.87 864.018Z" fill="#091270"/>
<path d="M-151.708 820.875L-152.816 820.561C-138.233 769.122 -101.318 722.844 -43.0857 682.99C8.56249 647.643 76.0053 617.856 157.37 594.454C297.463 554.161 473.276 535.718 616.214 546.299C809.256 560.604 950.323 583.87 1099.68 608.509C1207.32 626.271 1318.62 644.633 1457.14 661.001C1799.33 701.435 2038.16 613.018 2147.8 405.313L2148.83 405.847C2090.75 515.88 1997.36 592.822 1871.25 634.555C1758.17 671.978 1618.8 681.259 1457.02 662.138C1318.48 645.77 1207.15 627.407 1099.5 609.644C950.181 585.007 809.145 561.742 616.154 547.45C473.349 536.864 297.688 555.314 157.72 595.562C76.4376 618.937 9.10943 648.668 -42.4338 683.947C-100.434 723.638 -137.197 769.708 -151.708 820.875Z" fill="#091270"/>
<path d="M-152.555 777.741L-153.66 777.336C-137.65 733.878 -100.224 695.267 -42.4274 662.578C8.91452 633.535 75.4832 609.506 155.433 591.175C292.516 559.731 466.198 547.104 608.705 558.217C937.815 583.884 1119.1 598.021 1460.5 641.625C1820.12 687.558 2026.48 624.518 2150.53 430.853L2151.52 431.488C2084.91 535.473 1992.18 601.668 1868.01 633.861C1811.45 648.521 1749.17 656.103 1677.63 657.024C1612.97 657.859 1541.9 653.198 1460.36 642.783C1118.99 599.179 937.713 585.043 608.624 559.377C466.218 548.278 292.68 560.891 155.71 592.31C75.873 610.625 9.40833 634.608 -41.8393 663.593C-99.395 696.15 -136.639 734.555 -152.555 777.741Z" fill="#091270"/>
<path d="M-153.414 734.617L-154.483 734.091C-112.729 649.255 36.0466 607.76 153.505 587.887C289.187 564.933 456.548 558.285 601.196 570.125C745.102 581.901 858.274 584.69 967.717 587.386C1119.36 591.123 1262.61 594.656 1463.87 622.24C1785.95 666.387 2002.01 653.399 2153.27 456.394L2154.22 457.119C2115.5 507.543 2072.53 546.351 2022.87 575.743C1976.25 603.339 1924.53 622.109 1864.78 633.128C1810.74 643.092 1749.91 646.676 1678.8 644.075C1618.93 641.883 1550.6 635.322 1463.72 623.407C1262.51 595.836 1119.31 592.295 967.696 588.559C858.233 585.862 745.04 583.072 601.104 571.294C456.547 559.468 289.299 566.101 153.71 589.049C36.5174 608.893 -111.885 650.242 -153.414 734.617Z" fill="#091270"/>
<path d="M-154.295 691.523L-155.295 690.836C-110.216 625.363 36.4582 596.94 151.566 584.628C282.972 570.569 448.248 569.606 593.685 582.052C752.764 595.656 874.709 590.756 992.649 586.008C1137.5 580.181 1274.33 574.667 1467.26 602.876C1763.52 646.179 1977.58 677.476 2156.03 481.956L2156.93 482.771C2114.08 529.728 2068.75 564.534 2018.37 589.18C1971.68 612.017 1920.39 626.162 1861.56 632.406C1753.47 643.892 1635.2 628.645 1467.09 604.063C1274.27 575.879 1137.51 581.386 992.709 587.204C874.739 591.952 752.752 596.86 593.592 583.242C448.236 570.81 283.042 571.767 151.708 585.818C36.8351 598.12 -109.477 626.426 -154.295 691.523Z" fill="#091270"/>
<path d="M-155.216 648.448L-156.065 647.553C-135.783 628.204 -96.8667 612.67 -40.3933 601.364C9.71952 591.331 73.6645 584.607 149.638 581.37C276.646 575.956 435.762 580.551 586.176 593.97C752.952 608.85 878.74 595.658 1000.38 582.896C1143.43 567.888 1278.56 553.717 1470.63 583.501C1502.34 588.42 1532.71 593.402 1562.07 598.217C1817.28 640.081 1985.88 667.736 2158.77 507.507L2159.6 508.412C1986.29 669.05 1817.44 641.354 1561.87 599.433C1532.52 594.618 1502.16 589.636 1470.44 584.717C1278.54 554.951 1143.48 569.115 1000.51 584.117C897.903 594.884 792.327 605.95 661.724 600.235C637.418 599.172 612.26 597.53 586.072 595.19C435.718 581.774 276.664 577.182 149.697 582.597C-11.8386 589.49 -117.273 612.257 -155.216 648.448Z" fill="#091270"/>
<path d="M-156.189 605.37L-156.772 604.252C-62.1999 555.048 344.592 584.144 578.657 605.877C751.077 621.881 879.356 600.226 1003.41 579.274C1146.03 555.194 1280.74 532.453 1473.99 564.116C1533.73 573.903 1587.08 584.688 1638.68 595.12C1851.31 638.111 1991.78 666.505 2161.52 533.059L2162.29 534.042C2120.8 566.669 2080.26 590.276 2038.37 606.23C1999.69 620.958 1959.59 629.194 1915.78 631.4C1832.53 635.595 1742.58 617.403 1638.43 596.344C1586.85 585.912 1533.51 575.129 1473.8 565.352C1280.76 533.729 1146.15 556.455 1003.63 580.508C895.222 598.808 783.562 617.659 642.064 611.468C621.546 610.57 600.408 609.145 578.552 607.117C344.607 585.421 -61.9089 556.326 -156.189 605.37Z" fill="#091270"/>
<path d="M627.509 623.036C609.201 622.235 590.394 620.933 571.03 619.065C512.797 613.455 450.307 606.966 384.151 600.091C155.154 576.304 -81.6317 551.697 -157.232 562.268L-157.412 561.005C-81.6575 550.421 155.21 575.031 384.279 598.821C450.434 605.696 512.924 612.185 571.147 617.795C748.346 634.865 878.581 604.662 1004.52 575.454C1073.14 559.537 1144.09 543.088 1220.35 535.27C1305.61 526.53 1389.68 529.627 1477.37 544.741C1558.44 558.718 1629.24 576.899 1691.71 592.94C1868.26 638.281 1995.81 671.038 2164.27 558.611L2164.98 559.673C2123.86 587.122 2084.6 606.559 2044.95 619.101C2008.47 630.639 1971.55 636.32 1932.08 636.481C1857.22 636.767 1780.39 617.036 1691.4 594.182C1628.95 578.141 1558.18 559.972 1477.16 546.007C1282.14 512.39 1147.43 543.632 1004.82 576.702C892.529 602.741 776.837 629.57 627.509 623.036Z" fill="#091270"/>
<path d="M615.509 634.747C598.627 634.009 581.306 632.781 563.5 631.002C308.346 605.54 -44.0537 541.585 -158.303 519.084L-158.053 517.82C-43.8143 540.31 308.525 604.252 563.627 629.712C745.188 647.831 877.073 609.035 1004.62 571.52C1073.41 551.282 1144.53 530.361 1221.26 519.523C1307.07 507.408 1391.94 509.315 1480.72 525.365C1578.1 542.964 1658.01 568.973 1728.51 591.917C1885.05 642.863 1998.15 679.673 2166.99 584.172L2167.63 585.301C1998.29 681.076 1884.96 644.196 1728.1 593.144C1657.64 570.212 1577.78 544.226 1480.48 526.64C1283.05 490.958 1147.98 530.695 1004.97 572.76C889.828 606.644 771.12 641.556 615.509 634.747Z" fill="#091270"/>
<path d="M604.975 646.553C589.039 645.856 572.747 644.674 555.989 642.94C291.012 615.589 -51.9787 529.176 -159.31 475.862L-158.728 474.683C-51.5068 527.952 291.273 614.294 556.118 641.629C741.784 660.805 875.17 613.361 1004.17 567.5C1073.22 542.947 1144.62 517.558 1221.9 503.723C1308.34 488.248 1394.11 488.99 1484.11 505.99C1593.92 526.736 1678.92 561.264 1753.91 591.722C1890.83 647.341 1998.98 691.271 2169.77 609.735L2170.34 610.923C2091.52 648.55 2021.44 662.179 1949.81 653.789C1884.39 646.13 1823.69 621.482 1753.42 592.936C1678.49 562.501 1593.57 527.996 1483.88 507.276C1283.79 469.468 1148.19 517.683 1004.63 568.734C887.119 610.516 765.942 653.586 604.975 646.553Z" fill="#091270"/>
<path d="M595.346 658.409C580.082 657.741 564.483 656.579 548.469 654.868C425.078 641.723 276.057 609.506 139.608 566.48C4.51701 523.892 -104.787 475.105 -160.265 432.622L-159.454 431.565C-104.094 473.951 5.06012 522.671 140.01 565.222C276.378 608.224 425.309 640.417 548.608 653.557C738.218 673.763 873.013 617.675 1003.36 563.433C1072.73 534.567 1144.45 504.722 1222.35 487.893C1309.48 469.061 1396.21 468.641 1487.47 486.625C1606.69 510.109 1694.02 553.578 1771.08 591.922C1898.05 655.117 1998.34 705.03 2172.51 635.316L2173.01 636.552C1998.28 706.497 1897.76 656.461 1770.48 593.121C1693.5 554.81 1606.24 511.386 1487.21 487.93C1284.33 447.968 1148.1 504.647 1003.87 564.659C884.379 614.386 761.129 665.663 595.346 658.409Z" fill="#091270"/>
<path d="M586.327 670.311C571.552 669.665 556.442 668.514 540.958 666.816C414.752 652.956 271.5 616.185 137.595 563.28C3.67006 510.364 -102.435 448.613 -161.181 389.394L-160.221 388.446C-101.603 447.537 4.33406 509.178 138.089 562.026C271.883 614.885 415.014 651.631 541.109 665.475C734.571 686.717 870.683 621.961 1002.33 559.326C1072.05 526.149 1144.15 491.85 1222.67 472.029C1264.92 461.365 1305.76 455.56 1347.56 454.286C1394.39 452.855 1441.26 457.101 1490.85 467.261C1617.1 493.124 1704.93 545.727 1782.4 592.132C1897.26 660.92 1996.45 720.327 2175.28 660.91L2175.7 662.194C2093.46 689.517 2023.43 694.035 1955.33 676.401C1893.89 660.486 1839.4 627.854 1781.71 593.296C1704.32 546.946 1616.61 494.409 1490.58 468.596C1284.79 426.435 1147.86 491.584 1002.9 560.566C881.619 618.245 756.53 677.759 586.327 670.311Z" fill="#091270"/>
<path d="M577.725 682.242C563.286 681.611 548.553 680.466 533.437 678.753C407.117 664.47 265.814 622.314 135.573 560.058C5.22069 497.757 -100.477 421.798 -162.076 346.166L-161.018 345.304C-33.4735 501.901 271.629 647.765 533.589 677.382C730.81 699.687 868.221 626.211 1001.11 555.16C1071.21 517.672 1143.7 478.921 1222.91 456.109C1265.51 443.838 1306.77 436.969 1349.05 435.094C1396.42 432.993 1443.91 437.173 1494.23 447.866C1625.71 475.825 1712.74 537.548 1789.52 592.005C1898.94 669.616 1993.44 736.646 2178.03 686.451L2178.39 687.773C1993.17 738.124 1898.42 670.931 1788.73 593.123C1712.06 538.742 1625.15 477.097 1493.93 449.2C1285.18 404.817 1147.51 478.424 1001.75 556.362C878.859 622.084 752.072 689.861 577.725 682.242Z" fill="#091270"/>
<path d="M569.439 694.187C555.244 693.566 540.767 692.422 525.917 690.691C399.918 676.044 260.565 628.514 133.55 556.857C7.01332 485.466 -98.288 395.299 -162.961 302.959L-161.825 302.162C-28.3108 492.799 267.424 659.235 526.079 689.3C727.009 712.654 865.679 630.468 999.782 550.979C1070.29 509.182 1143.2 465.969 1223.09 440.186C1266.06 426.31 1307.74 418.367 1350.51 415.901C1398.44 413.13 1446.54 417.256 1497.6 428.501C1558.13 441.834 1613.69 464.298 1667.47 497.185C1714.9 526.202 1754.92 559.365 1793.62 591.439C1898.71 678.516 1989.47 753.719 2180.79 712.044L2181.08 713.404C2093.34 732.516 2021.14 728.54 1953.85 700.9C1893.73 676.206 1844.68 635.555 1792.74 592.513C1713.88 527.168 1632.33 459.593 1497.31 429.866C1285.54 383.229 1147.08 465.302 1000.51 552.185C876.09 625.912 747.747 701.979 569.439 694.187Z" fill="#091270"/>
<path d="M561.387 706.142C547.366 705.529 533.062 704.372 518.396 702.618C454.437 694.982 388.065 677.883 321.126 651.809C256.355 626.574 192.567 593.545 131.518 553.635C8.97461 473.51 -95.92 369.144 -163.837 259.753L-162.641 259.01C-20.155 488.503 259.96 670.349 518.57 701.217C723.176 725.641 863.075 634.711 998.365 546.764C1069.29 500.668 1142.62 452.994 1223.21 424.231C1266.56 408.758 1308.67 399.743 1351.94 396.686C1400.42 393.256 1449.17 397.328 1500.97 409.116C1562.8 423.19 1618.65 447.789 1671.71 484.329C1718.62 516.619 1757.74 554.059 1795.56 590.269C1892.82 683.35 1984.69 771.267 2183.53 737.616L2183.77 739.004C2092.67 754.418 2018.85 746.248 1951.43 713.295C1891.45 683.974 1844.39 638.951 1794.58 591.277C1717.82 517.819 1638.45 441.859 1500.66 410.49C1285.84 361.586 1146.57 452.105 999.13 547.95C873.311 629.74 743.503 714.111 561.387 706.142Z" fill="#091270"/>
<path d="M553.527 718.126C539.618 717.518 525.427 716.346 510.885 714.566C384.363 699.07 252.483 642.315 129.515 550.435C70.447 506.295 15.2288 455.302 -34.6195 398.86C-84.9732 341.845 -128.741 280.505 -164.702 216.547L-163.457 215.847C-13.6982 482.223 257.366 682.063 511.049 713.145C719.291 738.656 860.4 638.962 996.866 542.545C1068.22 492.13 1142 440.006 1223.3 408.273C1267.04 391.195 1309.58 381.127 1353.34 377.48C1402.39 373.391 1451.78 377.409 1504.33 389.761C1644.54 422.715 1721.51 506.979 1795.95 588.479C1890.2 691.675 1979.23 789.142 2186.27 763.218L2186.44 764.634C1978.67 790.659 1889.4 692.916 1794.9 589.444C1720.61 508.103 1643.78 423.998 1504 391.155C1286.11 339.953 1146.01 438.926 997.692 543.714C870.532 633.558 739.31 726.245 553.527 718.126Z" fill="#091270"/>
<path d="M546.37 730.161C532.226 729.542 517.915 728.324 503.365 726.494C377.671 710.717 247.694 648.718 127.493 547.224C11.7193 449.464 -89.6167 320.18 -165.568 173.352L-164.284 172.683C-6.8418 477.074 255.298 693.892 503.54 725.062C715.397 751.661 857.705 643.192 995.328 538.283C1067.12 483.561 1141.35 426.986 1223.37 392.275C1267.51 373.602 1310.48 362.471 1354.76 358.234C1404.37 353.496 1454.4 357.461 1507.7 370.375C1649.35 404.689 1723.52 496.872 1795.25 586.02C1886.77 699.761 1973.2 807.186 2189.01 788.789L2189.13 790.234C2137.03 794.679 2091.14 792.028 2048.86 782.147C2011.04 773.307 1976.9 758.823 1944.49 737.861C1884.17 698.851 1840.43 644.482 1794.12 586.93C1722.54 497.972 1648.53 405.979 1507.36 371.789C1286.37 318.268 1145.43 425.695 996.206 539.434C927.627 591.714 856.705 645.76 777.424 682.632C734.675 702.509 693.161 715.847 650.482 723.399C616.203 729.472 581.825 731.713 546.37 730.161Z" fill="#091270"/>
<path d="M2140.56 816.071C2106.83 814.595 2075.76 809.755 2046.5 801.474C2007.66 790.478 1972.93 773.61 1940.3 749.894C1879.66 705.828 1835.4 643.783 1792.6 583.781C1723.9 487.459 1652.85 387.861 1510.72 352.434C1286.74 296.588 1144.96 412.541 994.847 535.302C925.661 591.884 854.116 650.392 773.913 690.378C730.672 711.937 688.608 726.435 645.316 734.695C596.654 743.985 547.752 745.213 495.845 738.431C432.007 730.342 367.459 709.097 304.001 675.276C243.146 642.835 183.066 598.732 125.452 544.206C14.2997 438.995 -86.6329 295.818 -166.423 130.157L-165.099 129.521C3.12321 478.775 250.276 705.858 496.041 736.981C711.535 765.095 855.101 647.7 993.927 534.17C1066.14 475.119 1140.82 414.053 1223.54 376.352C1268.05 356.063 1311.45 343.858 1356.23 339.041C1406.39 333.633 1457.05 337.554 1511.08 351.021C1653.73 386.583 1724.94 486.413 1793.8 582.946C1882.73 707.615 1966.72 825.374 2191.77 814.392L2191.83 815.865C2174.06 816.71 2156.98 816.789 2140.56 816.071Z" fill="#091270"/>
<path d="M2159.92 840.992C2117.51 839.136 2079.31 832.454 2043.91 820.751C2004.01 807.565 1968.64 788.25 1935.76 761.717C1874.73 712.46 1831.93 645.131 1790.54 580.018C1724.8 476.589 1656.82 369.645 1514.09 333.07C1286.97 274.871 1144.29 399.244 993.242 530.926C923.495 591.728 851.381 654.6 770.286 697.72C726.564 720.962 683.977 736.662 640.091 745.692C590.748 755.84 541.109 757.373 488.335 750.359C362.748 734.006 239.986 663.546 123.453 540.934C69.1944 483.85 16.6022 415.501 -32.8673 337.798C-80.771 262.551 -125.99 178.166 -167.289 86.9612L-165.936 86.3468C-81.0502 273.836 16.675 426.434 124.527 539.92C240.806 662.275 363.279 732.59 488.521 748.898C707.583 778.005 852.298 651.833 992.25 529.821C1064.93 466.463 1140.07 400.948 1223.54 360.299C1268.45 338.425 1312.29 325.168 1357.58 319.761C1408.33 313.705 1459.64 317.594 1514.44 331.636C1578.74 348.114 1633.47 380.195 1681.76 429.722C1724.79 473.844 1758.85 527.421 1791.78 579.235C1874.39 709.2 1959.83 843.585 2194.49 839.974L2194.52 841.465C2182.69 841.631 2171.16 841.483 2159.92 840.992Z" fill="#091270"/>
<path d="M2179.7 866.544C2128.09 864.285 2082.62 855.55 2041.18 839.96C2000.18 824.542 1964.15 802.739 1931.02 773.307C1869.58 718.725 1828.22 645.979 1788.23 575.64C1722.6 460.226 1660.63 351.217 1517.45 313.724C1287.21 252.859 1143.6 385.744 991.573 526.434C921.272 591.488 848.578 658.763 766.61 705.039C722.415 729.996 679.307 746.887 634.825 756.698C584.822 767.725 534.435 769.562 480.814 762.317C356.209 745.65 235.303 670.076 121.452 537.693C18.5235 418.004 -78.9139 251.825 -168.144 43.7763L-166.761 43.1836C-77.5966 251.097 19.7549 417.139 122.587 536.702C236.186 668.788 356.783 744.195 481.012 760.815C703.572 790.893 849.459 655.883 990.54 525.327C1063.7 457.633 1139.34 387.629 1223.56 344.023C1268.87 320.564 1313.16 306.276 1358.97 300.33C1410.29 293.667 1462.26 297.573 1517.82 312.261C1582.37 329.169 1636.56 362.859 1683.48 415.275C1725.37 462.062 1757.99 519.423 1789.52 574.891C1869.72 715.935 1952.68 861.784 2197.24 865.546L2197.22 867.055C2191.31 866.97 2185.47 866.796 2179.7 866.544Z" fill="#091270"/>
<path d="M2199.92 892.666C1944.09 881.472 1863.46 723.539 1785.46 570.794C1723.02 448.519 1664.04 333.018 1520.79 294.359C1287.38 231.364 1142.89 372.599 989.934 522.127C919.082 591.392 845.81 663.01 762.962 712.411C718.285 739.041 674.655 757.134 629.579 767.704C578.896 779.59 527.771 781.731 473.272 774.244C409.647 765.5 346.949 739.968 286.893 698.346C230.016 658.925 173.674 603.771 119.422 534.43C20.4746 407.904 -73.8801 233.288 -169 0.581109L-167.587 0C-72.5225 232.572 21.7658 407.073 120.657 533.474C233.181 677.3 348.593 755.562 473.512 772.723C699.641 803.783 846.685 660.048 988.891 521.03C1062.49 449.069 1138.61 374.667 1223.57 328.124C1269.28 303.08 1314.02 287.72 1360.35 281.174C1412.26 273.843 1464.88 277.676 1521.22 292.877C1555.83 302.219 1586.44 316.202 1614.78 335.607C1640.08 352.941 1663.02 374.263 1684.9 400.805C1725.59 450.142 1755.34 508.408 1786.84 570.089C1864.63 722.437 1945.07 879.973 2200 891.128L2199.93 892.666L2199.92 892.666Z" fill="#091270"/>
</g>
</svg>
