<svg width="1920" height="696" viewBox="0 0 1920 696" fill="none" xmlns="http://www.w3.org/2000/svg">
<g opacity="0.1">
<path d="M-111.852 1123L-112.87 1122.96C-108.197 1016.09 -74.7709 916.151 -13.5409 825.933C39.9902 747.062 113.519 677.016 205.002 617.737C284.306 566.354 375.419 524.642 468.492 497.129C553.059 472.133 636.258 459.965 702.771 462.876C766.087 465.646 830.985 483.793 901.195 518.338C963.785 549.141 1024.78 589.885 1083.76 629.286C1202.31 708.482 1324.91 790.375 1467.52 796.614C1640.27 804.174 1851.78 717.561 1993.82 581.097C2071.19 506.77 2163.3 384.889 2162.75 226.399L2163.77 226.392C2163.99 291.052 2148.37 355.549 2117.32 418.095C2088.54 476.107 2047.22 531.193 1994.52 581.832C1924.21 649.386 1837.13 705.541 1742.71 744.21C1648.24 782.908 1553.07 801.378 1467.47 797.633C1403.37 794.828 1337.77 776.538 1266.93 741.72C1203.79 710.69 1142.49 669.738 1083.2 630.129C965.389 551.426 843.563 470.046 702.748 463.885C582.246 458.612 381.783 504.398 205.567 618.588C66.8983 708.449 -100.74 868.898 -111.852 1123Z" fill="white"/>
<path d="M-112.687 1079.83L-113.725 1079.76C-107.642 980.781 -73.7253 888.52 -12.9138 805.539C40.3465 732.862 113.012 668.575 203.054 614.478C281.3 567.457 371.135 529.537 462.851 504.812C545.628 482.492 627.497 471.818 693.623 474.711C694.173 474.735 694.733 474.76 695.283 474.784C760.344 478.008 826.65 494.738 897.966 525.943C961.553 553.768 1023.24 590.287 1082.9 625.605C1202.11 696.196 1325.39 769.179 1470.89 777.23C1645.33 786.924 1849.16 711.323 1990.2 584.745C2065.69 516.99 2157.38 404.265 2165.47 251.959L2166.51 252.015C2163.21 314.051 2145.39 375.135 2113.53 433.543C2083.81 488.014 2042.55 539.153 1990.89 585.521C1921.46 647.836 1835.92 698.885 1743.58 733.134C1651.14 767.42 1556.83 783.041 1470.84 778.268C1405.45 774.652 1338.89 757.636 1267.37 726.258C1203.63 698.294 1141.99 661.797 1082.37 626.501C963.202 555.953 839.978 482.993 695.227 475.822C694.718 475.8 694.179 475.777 693.67 475.754C573.83 470.511 376.369 511.55 203.586 615.369C67.2856 697.271 -98.2262 844.321 -112.687 1079.83Z" fill="white"/>
<path d="M-113.524 1036.66L-114.581 1036.58C-107.099 945.485 -72.6798 860.869 -12.2952 785.085C40.7164 718.56 112.509 660.001 201.092 611.035C278.322 568.348 366.88 534.198 457.199 512.28C539.609 492.281 621.5 483.2 687.762 486.711C754.727 490.264 822.556 505.529 895.119 533.401C959.826 558.244 1022.33 590.625 1082.78 621.937C1202.44 683.923 1326.17 748.017 1474.26 757.865C1621.68 767.672 1788.59 722.419 1920.75 636.804C2064.41 543.743 2152.28 416.145 2168.18 277.529L2169.23 277.647C2161.02 349.346 2133.81 417.959 2088.36 481.58C2046.08 540.767 1989.88 593.283 1921.33 637.687C1856.28 679.825 1781.31 713.161 1704.51 734.099C1627.09 755.204 1547.46 763.792 1474.19 758.913C1325.88 749.045 1202.05 684.896 1082.29 622.864C961.571 560.331 836.74 495.669 687.706 487.76C686.047 487.667 684.357 487.593 682.687 487.52C538.41 481.207 350.271 529.777 201.613 611.955C67.6871 685.982 -95.6931 819.746 -113.524 1036.66Z" fill="white"/>
<path d="M-114.36 993.499L-115.436 993.38C-106.534 910.2 -71.6245 833.249 -11.6668 764.661C41.074 704.329 112.003 651.519 199.137 607.694C275.308 569.389 362.589 539.021 451.542 519.87C532.863 502.375 614.065 494.825 680.243 498.629C833.94 507.456 960.604 563.799 1083.1 618.297C1203.08 671.665 1327.15 726.853 1477.63 738.5C1770.08 761.103 2118.41 591.58 2170.88 303.1L2171.95 303.289C2147.74 436.346 2057.6 554.905 1918.11 637.117C1787.96 713.819 1627.39 751.176 1477.55 739.568C1326.88 727.903 1202.73 672.68 1082.67 619.279C960.263 564.825 833.689 508.527 680.186 499.708C536.26 491.41 347.67 534.204 199.626 608.664C68.0949 674.804 -93.1532 795.273 -114.36 993.499Z" fill="white"/>
<path d="M-115.187 950.336L-116.272 950.186C-105.962 874.925 -70.5503 805.63 -11.0195 744.238C41.4598 690.12 111.514 643.068 197.201 604.364C272.313 570.442 358.306 543.854 445.914 527.471C527.288 512.254 605.713 506.389 672.743 510.536C831.386 520.335 960.099 568.319 1084.57 614.718C1204.56 659.452 1328.62 705.701 1481.01 719.104C1762.07 743.833 2100.28 615.391 2173.6 328.64L2174.66 328.911C2157.86 394.611 2125.8 455.031 2079.37 508.516C2035.67 558.844 1980.33 601.897 1914.89 636.497C1851.78 669.862 1781.8 694.088 1706.87 708.506C1632.16 722.881 1556.13 726.81 1480.9 720.202C1328.37 706.782 1204.22 660.499 1084.16 615.742C959.768 569.366 831.135 521.416 672.655 511.624C529.732 502.789 343.261 539.584 197.627 605.352C68.5086 663.689 -90.598 770.882 -115.187 950.336Z" fill="white"/>
<path d="M-116.023 907.172L-117.127 906.981C-105.398 839.64 -69.475 778.021 -10.3809 723.815C41.8253 675.941 111.006 634.637 195.255 601.043C269.276 571.534 354.002 548.728 440.266 535.092C520.489 522.407 598.267 518.034 665.234 522.454C829.83 533.309 961.242 572.992 1088.33 611.362C1207.68 647.404 1331.11 684.665 1484.38 699.74C1761.63 726.995 2083.11 630.723 2176.33 354.201L2177.39 354.553C2136.15 476.884 2044.27 574.161 1911.69 635.877C1789.3 692.845 1637.51 715.921 1484.27 700.847C1330.9 685.768 1207.42 648.485 1088 612.43C960.981 574.072 829.628 534.413 665.155 523.563C523.104 514.174 338.821 545.012 195.659 602.082C68.922 652.614 -88.0445 746.562 -116.023 907.172Z" fill="white"/>
<path d="M-116.87 864.018L-117.982 863.775C-104.826 804.385 -68.4114 750.422 -9.74376 703.402C42.189 661.782 110.506 626.236 193.308 597.744C266.228 572.656 349.666 553.631 434.616 542.724C513.668 532.569 590.809 529.688 657.714 534.371C830.884 546.51 960.653 576.66 1098.05 608.593C1215.14 635.8 1336.21 663.937 1487.74 680.364C1824.57 716.87 2083 604.481 2179.04 379.75L2180.08 380.194C2154.65 439.72 2117.74 491.948 2070.36 535.431C2025.46 576.654 1970.98 610.223 1908.44 635.214C1790.12 682.492 1644.6 698.494 1487.61 681.481C1336.01 665.051 1214.9 636.912 1097.77 609.693C960.421 577.773 830.693 547.624 657.614 535.5C514.183 525.458 336.391 549.702 193.649 598.81C69.3318 641.6 -85.4858 722.335 -116.87 864.018Z" fill="white"/>
<path d="M-117.708 820.875L-118.816 820.561C-104.233 769.122 -67.3176 722.844 -9.08572 682.99C42.5625 647.643 110.005 617.856 191.37 594.454C331.463 554.161 507.276 535.718 650.214 546.299C843.255 560.604 984.323 583.87 1133.68 608.509C1241.32 626.271 1352.62 644.633 1491.14 661.001C1833.33 701.435 2072.16 613.018 2181.8 405.313L2182.83 405.847C2124.75 515.88 2031.36 592.822 1905.25 634.555C1792.17 671.978 1652.8 681.259 1491.02 662.138C1352.48 645.77 1241.15 627.407 1133.5 609.644C984.181 585.007 843.145 561.742 650.154 547.45C507.349 536.864 331.688 555.314 191.72 595.562C110.438 618.937 43.1094 648.668 -8.43384 683.947C-66.4341 723.638 -103.197 769.708 -117.708 820.875Z" fill="white"/>
<path d="M-118.555 777.741L-119.66 777.336C-103.65 733.878 -66.2236 695.267 -8.42744 662.578C42.9145 633.535 109.483 609.506 189.433 591.175C326.516 559.731 500.198 547.104 642.705 558.217C971.815 583.884 1153.1 598.021 1494.5 641.625C1854.12 687.558 2060.48 624.518 2184.53 430.853L2185.52 431.488C2118.91 535.473 2026.18 601.668 1902.01 633.861C1845.45 648.521 1783.17 656.103 1711.63 657.024C1646.97 657.859 1575.9 653.198 1494.36 642.783C1152.99 599.179 971.713 585.043 642.624 559.377C500.218 548.278 326.68 560.891 189.71 592.31C109.873 610.625 43.4083 634.608 -7.83932 663.593C-65.395 696.15 -102.639 734.555 -118.555 777.741Z" fill="white"/>
<path d="M-119.414 734.617L-120.483 734.091C-78.7293 649.255 70.0466 607.76 187.505 587.887C323.187 564.933 490.548 558.285 635.196 570.125C779.102 581.901 892.274 584.69 1001.72 587.386C1153.36 591.123 1296.61 594.656 1497.87 622.24C1819.95 666.387 2036.01 653.399 2187.27 456.394L2188.22 457.119C2149.5 507.543 2106.53 546.351 2056.87 575.743C2010.25 603.339 1958.53 622.109 1898.78 633.128C1844.74 643.092 1783.91 646.676 1712.8 644.075C1652.93 641.883 1584.6 635.322 1497.72 623.407C1296.51 595.836 1153.31 592.295 1001.7 588.559C892.233 585.862 779.04 583.072 635.104 571.294C490.547 559.468 323.299 566.101 187.71 589.049C70.5174 608.893 -77.8848 650.242 -119.414 734.617Z" fill="white"/>
<path d="M-120.295 691.523L-121.295 690.836C-76.2158 625.363 70.4582 596.94 185.566 584.628C316.972 570.569 482.248 569.606 627.685 582.052C786.764 595.656 908.709 590.756 1026.65 586.008C1171.5 580.181 1308.33 574.667 1501.26 602.876C1797.52 646.179 2011.58 677.476 2190.03 481.956L2190.93 482.771C2148.08 529.728 2102.75 564.534 2052.37 589.18C2005.68 612.017 1954.39 626.162 1895.56 632.406C1787.47 643.892 1669.2 628.645 1501.09 604.063C1308.27 575.879 1171.51 581.386 1026.71 587.204C908.739 591.952 786.752 596.86 627.592 583.242C482.236 570.81 317.042 571.767 185.708 585.818C70.8351 598.12 -75.4767 626.426 -120.295 691.523Z" fill="white"/>
<path d="M-121.216 648.448L-122.065 647.553C-101.783 628.204 -62.8667 612.67 -6.3933 601.364C43.7195 591.331 107.665 584.607 183.638 581.37C310.646 575.956 469.762 580.551 620.176 593.97C786.953 608.85 912.74 595.658 1034.38 582.896C1177.43 567.888 1312.56 553.717 1504.63 583.501C1536.34 588.42 1566.71 593.402 1596.07 598.217C1851.28 640.081 2019.88 667.736 2192.77 507.507L2193.6 508.412C2020.29 669.05 1851.44 641.354 1595.87 599.433C1566.52 594.618 1536.16 589.636 1504.44 584.717C1312.54 554.951 1177.48 569.115 1034.51 584.117C931.903 594.884 826.327 605.95 695.724 600.235C671.419 599.172 646.26 597.53 620.072 595.19C469.718 581.774 310.664 577.182 183.697 582.597C22.1614 589.49 -83.2732 612.257 -121.216 648.448Z" fill="white"/>
<path d="M-122.189 605.37L-122.772 604.252C-28.1999 555.048 378.592 584.144 612.657 605.877C785.077 621.881 913.356 600.226 1037.41 579.274C1180.03 555.194 1314.74 532.453 1507.99 564.116C1567.73 573.903 1621.08 584.688 1672.68 595.12C1885.31 638.111 2025.78 666.505 2195.52 533.059L2196.29 534.042C2154.8 566.669 2114.26 590.276 2072.37 606.23C2033.69 620.958 1993.59 629.194 1949.78 631.4C1866.53 635.595 1776.58 617.403 1672.43 596.344C1620.85 585.912 1567.51 575.129 1507.8 565.352C1314.76 533.729 1180.15 556.455 1037.63 580.508C929.222 598.808 817.562 617.659 676.064 611.468C655.546 610.57 634.408 609.145 612.552 607.117C378.607 585.421 -27.9089 556.326 -122.189 605.37Z" fill="white"/>
<path d="M661.509 623.036C643.201 622.235 624.394 620.933 605.03 619.065C546.797 613.456 484.307 606.966 418.151 600.091C189.154 576.304 -47.6317 551.697 -123.232 562.268L-123.412 561.005C-47.6575 550.421 189.21 575.031 418.279 598.821C484.434 605.696 546.924 612.185 605.147 617.795C782.346 634.865 912.581 604.662 1038.52 575.454C1107.14 559.537 1178.09 543.088 1254.35 535.27C1339.61 526.53 1423.68 529.627 1511.37 544.741C1592.44 558.718 1663.24 576.899 1725.71 592.94C1902.26 638.281 2029.81 671.038 2198.27 558.611L2198.98 559.673C2157.86 587.122 2118.6 606.559 2078.95 619.101C2042.47 630.639 2005.55 636.32 1966.08 636.481C1891.22 636.767 1814.39 617.036 1725.4 594.182C1662.95 578.141 1592.18 559.972 1511.16 546.007C1316.14 512.39 1181.43 543.632 1038.82 576.702C926.529 602.741 810.837 629.57 661.509 623.036Z" fill="white"/>
<path d="M649.509 634.747C632.627 634.009 615.306 632.781 597.5 631.002C342.346 605.54 -10.0537 541.585 -124.303 519.084L-124.053 517.82C-9.81432 540.31 342.525 604.252 597.627 629.712C779.188 647.831 911.073 609.035 1038.62 571.52C1107.41 551.282 1178.53 530.361 1255.26 519.523C1341.07 507.408 1425.94 509.315 1514.72 525.365C1612.1 542.964 1692.01 568.973 1762.51 591.917C1919.05 642.863 2032.15 679.673 2200.99 584.172L2201.63 585.301C2032.29 681.076 1918.96 644.196 1762.1 593.144C1691.64 570.212 1611.78 544.226 1514.48 526.64C1317.05 490.958 1181.98 530.695 1038.97 572.76C923.828 606.644 805.12 641.556 649.509 634.747Z" fill="white"/>
<path d="M638.975 646.553C623.039 645.856 606.747 644.674 589.989 642.94C325.012 615.589 -17.9787 529.176 -125.31 475.862L-124.728 474.683C-17.5068 527.952 325.273 614.294 590.118 641.629C775.784 660.805 909.17 613.361 1038.17 567.5C1107.22 542.947 1178.62 517.557 1255.9 503.723C1342.34 488.248 1428.11 488.99 1518.11 505.99C1627.92 526.736 1712.92 561.264 1787.91 591.722C1924.83 647.341 2032.98 691.271 2203.77 609.735L2204.34 610.923C2125.52 648.55 2055.44 662.179 1983.81 653.789C1918.39 646.13 1857.69 621.482 1787.42 592.936C1712.49 562.501 1627.57 527.996 1517.88 507.276C1317.79 469.468 1182.19 517.683 1038.63 568.734C921.119 610.516 799.942 653.586 638.975 646.553Z" fill="white"/>
<path d="M629.346 658.409C614.082 657.741 598.483 656.579 582.469 654.868C459.078 641.723 310.057 609.506 173.608 566.48C38.517 523.892 -70.7872 475.105 -126.265 432.622L-125.454 431.565C-70.0941 473.951 39.0601 522.671 174.01 565.222C310.378 608.224 459.309 640.417 582.608 653.557C772.218 673.763 907.013 617.675 1037.36 563.433C1106.73 534.567 1178.45 504.722 1256.35 487.893C1343.48 469.061 1430.21 468.641 1521.47 486.625C1640.69 510.109 1728.02 553.578 1805.08 591.922C1932.05 655.117 2032.34 705.03 2206.51 635.316L2207.01 636.552C2032.28 706.497 1931.76 656.461 1804.48 593.121C1727.5 554.81 1640.24 511.386 1521.21 487.93C1318.32 447.968 1182.1 504.647 1037.87 564.659C918.379 614.386 795.129 665.663 629.346 658.409Z" fill="white"/>
<path d="M620.327 670.311C605.552 669.665 590.442 668.514 574.958 666.816C448.752 652.956 305.5 616.185 171.595 563.28C37.6701 510.364 -68.4351 448.613 -127.181 389.394L-126.221 388.446C-67.6025 447.537 38.3341 509.178 172.089 562.026C305.883 614.885 449.014 651.631 575.109 665.475C768.571 686.717 904.683 621.961 1036.33 559.326C1106.05 526.148 1178.15 491.85 1256.67 472.029C1298.92 461.365 1339.76 455.56 1381.56 454.286C1428.39 452.855 1475.26 457.101 1524.85 467.261C1651.1 493.124 1738.93 545.727 1816.4 592.132C1931.26 660.92 2030.45 720.327 2209.28 660.91L2209.7 662.194C2127.46 689.517 2057.43 694.035 1989.33 676.401C1927.89 660.487 1873.4 627.854 1815.71 593.296C1738.32 546.946 1650.61 494.409 1524.58 468.596C1318.79 426.435 1181.86 491.584 1036.9 560.566C915.619 618.245 790.53 677.759 620.327 670.311Z" fill="white"/>
<path d="M611.725 682.242C597.286 681.611 582.553 680.466 567.437 678.753C441.117 664.47 299.814 622.314 169.573 560.058C39.2207 497.757 -66.4774 421.798 -128.076 346.166L-127.018 345.304C0.526505 501.901 305.629 647.765 567.589 677.382C764.81 699.687 902.221 626.211 1035.11 555.16C1105.21 517.672 1177.7 478.921 1256.91 456.109C1299.51 443.838 1340.77 436.969 1383.05 435.094C1430.42 432.993 1477.91 437.173 1528.23 447.866C1659.71 475.825 1746.74 537.548 1823.52 592.005C1932.94 669.616 2027.44 736.646 2212.03 686.451L2212.39 687.773C2027.17 738.124 1932.42 670.931 1822.73 593.123C1746.06 538.742 1659.15 477.097 1527.93 449.2C1319.18 404.817 1181.51 478.424 1035.75 556.362C912.859 622.084 786.072 689.861 611.725 682.242Z" fill="white"/>
<path d="M603.439 694.187C589.244 693.566 574.767 692.422 559.917 690.691C433.918 676.044 294.565 628.514 167.55 556.857C41.0133 485.466 -64.288 395.299 -128.961 302.959L-127.825 302.162C5.68916 492.799 301.424 659.235 560.079 689.3C761.009 712.654 899.679 630.468 1033.78 550.979C1104.29 509.182 1177.2 465.969 1257.09 440.186C1300.06 426.31 1341.74 418.367 1384.51 415.901C1432.44 413.13 1480.54 417.256 1531.6 428.501C1592.13 441.834 1647.69 464.298 1701.47 497.185C1748.9 526.202 1788.92 559.365 1827.62 591.439C1932.71 678.516 2023.47 753.719 2214.79 712.044L2215.08 713.404C2127.34 732.516 2055.14 728.54 1987.85 700.9C1927.73 676.206 1878.68 635.555 1826.74 592.513C1747.88 527.168 1666.33 459.593 1531.31 429.866C1319.54 383.229 1181.08 465.302 1034.51 552.185C910.09 625.912 781.747 701.979 603.439 694.187Z" fill="white"/>
<path d="M595.387 706.142C581.366 705.529 567.062 704.372 552.396 702.618C488.437 694.982 422.065 677.883 355.126 651.809C290.355 626.574 226.567 593.545 165.518 553.635C42.9746 473.51 -61.92 369.144 -129.837 259.753L-128.641 259.01C13.845 488.503 293.96 670.349 552.57 701.217C757.176 725.641 897.075 634.711 1032.37 546.764C1103.29 500.668 1176.62 452.994 1257.21 424.231C1300.56 408.758 1342.67 399.743 1385.94 396.686C1434.42 393.256 1483.17 397.328 1534.97 409.116C1596.8 423.19 1652.65 447.789 1705.71 484.329C1752.62 516.619 1791.74 554.059 1829.56 590.269C1926.82 683.35 2018.69 771.267 2217.53 737.616L2217.77 739.004C2126.67 754.418 2052.85 746.248 1985.43 713.295C1925.45 683.974 1878.39 638.951 1828.58 591.277C1751.82 517.819 1672.45 441.859 1534.66 410.49C1319.84 361.586 1180.57 452.105 1033.13 547.95C907.311 629.74 777.503 714.111 595.387 706.142Z" fill="white"/>
<path d="M587.527 718.126C573.618 717.518 559.427 716.346 544.885 714.566C418.363 699.07 286.483 642.315 163.515 550.435C104.447 506.295 49.2288 455.302 -0.619476 398.86C-50.9732 341.845 -94.741 280.505 -130.702 216.547L-129.457 215.847C20.3018 482.223 291.366 682.063 545.049 713.145C753.291 738.656 894.4 638.962 1030.87 542.545C1102.22 492.13 1176 440.006 1257.3 408.273C1301.04 391.195 1343.58 381.127 1387.34 377.48C1436.39 373.391 1485.78 377.409 1538.33 389.761C1678.54 422.715 1755.51 506.979 1829.95 588.479C1924.2 691.675 2013.23 789.142 2220.27 763.218L2220.44 764.634C2012.67 790.659 1923.4 692.916 1828.9 589.444C1754.61 508.103 1677.78 423.998 1538 391.155C1320.11 339.953 1180.01 438.926 1031.69 543.714C904.532 633.558 773.31 726.245 587.527 718.126Z" fill="white"/>
<path d="M580.37 730.161C566.226 729.542 551.915 728.324 537.365 726.494C411.671 710.717 281.694 648.718 161.493 547.224C45.7193 449.464 -55.6167 320.18 -131.568 173.352L-130.284 172.683C27.1582 477.074 289.298 693.892 537.54 725.062C749.397 751.661 891.705 643.192 1029.33 538.283C1101.12 483.561 1175.35 426.986 1257.37 392.275C1301.51 373.602 1344.48 362.471 1388.76 358.234C1438.37 353.496 1488.4 357.461 1541.7 370.375C1683.35 404.689 1757.52 496.872 1829.25 586.02C1920.77 699.761 2007.2 807.186 2223.01 788.789L2223.13 790.234C2171.03 794.679 2125.14 792.028 2082.86 782.147C2045.04 773.307 2010.9 758.823 1978.49 737.861C1918.17 698.851 1874.43 644.482 1828.12 586.93C1756.54 497.972 1682.53 405.979 1541.36 371.789C1320.37 318.268 1179.43 425.695 1030.21 539.434C961.627 591.714 890.705 645.76 811.424 682.632C768.675 702.509 727.161 715.847 684.482 723.399C650.203 729.472 615.826 731.713 580.37 730.161Z" fill="white"/>
<path d="M2174.56 816.071C2140.83 814.595 2109.76 809.755 2080.5 801.474C2041.66 790.478 2006.93 773.61 1974.3 749.894C1913.66 705.828 1869.4 643.783 1826.6 583.781C1757.9 487.459 1686.85 387.861 1544.72 352.434C1320.74 296.588 1178.96 412.541 1028.85 535.302C959.661 591.884 888.116 650.392 807.913 690.378C764.672 711.937 722.608 726.435 679.316 734.695C630.654 743.985 581.752 745.213 529.845 738.431C466.007 730.342 401.459 709.097 338.001 675.276C277.146 642.835 217.066 598.732 159.452 544.206C48.2997 438.995 -52.6329 295.818 -132.423 130.157L-131.099 129.521C37.1232 478.775 284.276 705.858 530.041 736.981C745.535 765.095 889.101 647.701 1027.93 534.17C1100.14 475.119 1174.82 414.053 1257.54 376.352C1302.05 356.063 1345.45 343.858 1390.23 339.041C1440.39 333.633 1491.05 337.554 1545.08 351.021C1687.73 386.583 1758.94 486.413 1827.8 582.946C1916.73 707.615 2000.72 825.374 2225.77 814.392L2225.83 815.865C2208.06 816.71 2190.98 816.789 2174.56 816.071Z" fill="white"/>
<path d="M2193.92 840.992C2151.51 839.136 2113.31 832.454 2077.91 820.751C2038.01 807.565 2002.64 788.25 1969.76 761.717C1908.73 712.46 1865.93 645.131 1824.54 580.018C1758.8 476.589 1690.82 369.645 1548.09 333.07C1320.97 274.871 1178.29 399.244 1027.24 530.926C957.495 591.728 885.381 654.6 804.286 697.72C760.564 720.962 717.977 736.662 674.091 745.692C624.748 755.84 575.109 757.373 522.335 750.359C396.748 734.006 273.986 663.546 157.453 540.934C103.194 483.85 50.6022 415.501 1.13272 337.798C-46.771 262.551 -91.9898 178.166 -133.289 86.9612L-131.936 86.3468C-47.0502 273.836 50.675 426.434 158.527 539.92C274.806 662.275 397.279 732.59 522.521 748.898C741.583 778.005 886.298 651.833 1026.25 529.821C1098.93 466.463 1174.07 400.948 1257.54 360.299C1302.45 338.425 1346.29 325.168 1391.58 319.761C1442.33 313.705 1493.64 317.594 1548.44 331.636C1612.74 348.114 1667.47 380.195 1715.76 429.722C1758.79 473.844 1792.85 527.421 1825.78 579.235C1908.39 709.2 1993.83 843.585 2228.49 839.974L2228.52 841.465C2216.69 841.631 2205.16 841.483 2193.92 840.992Z" fill="white"/>
<path d="M2213.7 866.544C2162.09 864.285 2116.62 855.55 2075.18 839.96C2034.18 824.542 1998.15 802.739 1965.02 773.307C1903.58 718.725 1862.22 645.979 1822.23 575.64C1756.6 460.226 1694.63 351.217 1551.45 313.724C1321.21 252.859 1177.6 385.744 1025.57 526.434C955.271 591.488 882.578 658.763 800.61 705.039C756.415 729.996 713.307 746.887 668.825 756.698C618.822 767.725 568.435 769.562 514.814 762.317C390.209 745.65 269.303 670.076 155.452 537.693C52.5235 418.004 -44.9139 251.825 -134.144 43.7763L-132.761 43.1836C-43.5966 251.097 53.7549 417.139 156.587 536.702C270.186 668.788 390.783 744.195 515.012 760.815C737.572 790.893 883.459 655.883 1024.54 525.327C1097.7 457.633 1173.34 387.629 1257.56 344.023C1302.87 320.564 1347.16 306.276 1392.97 300.33C1444.29 293.667 1496.26 297.573 1551.82 312.261C1616.37 329.169 1670.56 362.859 1717.48 415.275C1759.37 462.062 1791.99 519.423 1823.52 574.891C1903.72 715.935 1986.68 861.784 2231.24 865.546L2231.22 867.055C2225.31 866.97 2219.47 866.796 2213.7 866.544Z" fill="white"/>
<path d="M2233.92 892.666C1978.09 881.472 1897.46 723.539 1819.46 570.794C1757.02 448.519 1698.04 333.018 1554.79 294.359C1321.38 231.364 1176.89 372.599 1023.93 522.127C953.082 591.392 879.81 663.01 796.962 712.411C752.285 739.041 708.655 757.134 663.579 767.704C612.896 779.59 561.771 781.731 507.272 774.244C443.647 765.5 380.949 739.968 320.893 698.346C264.016 658.925 207.674 603.771 153.422 534.43C54.4746 407.904 -39.8801 233.288 -135 0.581109L-133.587 0C-38.5225 232.572 55.7658 407.073 154.657 533.474C267.181 677.3 382.593 755.562 507.512 772.723C733.641 803.783 880.685 660.048 1022.89 521.03C1096.49 449.069 1172.61 374.667 1257.57 328.124C1303.28 303.08 1348.02 287.72 1394.35 281.174C1446.26 273.843 1498.88 277.676 1555.22 292.877C1589.83 302.219 1620.44 316.202 1648.78 335.607C1674.08 352.941 1697.02 374.263 1718.9 400.805C1759.59 450.142 1789.34 508.408 1820.84 570.089C1898.63 722.437 1979.07 879.973 2234 891.128L2233.93 892.666L2233.92 892.666Z" fill="white"/>
</g>
</svg>
