<svg xmlns="http://www.w3.org/2000/svg" xmlns:xlink="http://www.w3.org/1999/xlink" width="28.248046875" height="23.9443359375" viewBox="0 0 28.248046875 23.9443359375" fill="none"><g opacity="1"  transform="translate(0 0)"><g opacity="1"  transform="translate(0 0)"><mask id="mask-0" fill="white"><path d="M0 0L28.2487 0L28.2487 23.9443L0 23.9443L0 0Z"  ></path></mask><path d="M0 0L28.2487 0L28.2487 23.9443L0 23.9443L0 0Z"  ></path><g mask="url(#mask-0)"><path id="Path 179482" fill-rule="evenodd" style="fill:#FFFFFF" d="M18.7068 20.563L14.2101 20.563C13.779 20.563 13.4302 20.9075 13.4176 21.3385C13.4155 21.4096 13.4116 21.4802 13.4052 21.5507C13.2981 22.7239 12.5899 23.586 11.4752 23.8571C10.3998 24.1184 9.49546 23.7898 8.82682 22.9128C8.11973 21.9852 8.02932 20.9176 8.7314 20.0291C9.29083 19.321 9.17577 18.7527 8.93422 18.0382C7.21371 12.9509 5.50142 7.86086 3.8188 2.76105C3.59104 2.07095 3.27525 1.74443 2.51801 1.82494C1.91135 1.88958 1.26068 1.94196 0.688148 1.78552C0.509843 1.73676 0.35494 1.60095 0.207559 1.43824C-0.0746646 1.12663 -0.0695105 0.647708 0.225669 0.34835C0.366641 0.205706 0.5104 0.0949614 0.663214 0.0807527C1.76676 -0.0214943 2.89384 -0.0336135 3.99432 0.0847925C4.37057 0.125329 4.84489 0.587391 5.01317 0.971444C5.45824 1.98653 5.80761 3.05135 6.1039 4.1216C6.32455 4.91882 6.72267 5.17193 7.56294 5.16594C13.9347 5.12053 20.3068 5.13028 26.6787 5.12554C28.3837 5.12415 28.502 5.281 27.9639 6.91988C27.0062 9.83615 25.9979 12.7365 25.0862 15.6672C24.7826 16.6425 24.2774 17.0025 23.2679 16.9916C19.353 16.9494 15.4374 16.9712 11.522 16.9735L11.5132 16.9735C11.0257 16.9749 10.6635 17.4288 10.7496 17.9087C10.9129 18.82 11.1724 18.8202 12.4573 18.8209C15.6434 18.8227 18.8296 18.8 22.0152 18.8365C23.4116 18.8527 24.4174 19.7664 24.5811 21.0151C24.7499 22.3046 23.9932 23.4622 22.7348 23.8393C21.2685 24.2786 19.7239 23.2695 19.5214 21.7215C19.5059 21.6038 19.5005 21.4848 19.4999 21.3596C19.498 20.9202 19.1461 20.563 18.7068 20.563Z"></path></g></g></g></svg>