<svg width="137" height="53" viewBox="0 0 137 53" fill="none" xmlns="http://www.w3.org/2000/svg">
<g clip-path="url(#clip0_1_93)">
<path d="M11.7617 16.2933C11.4977 16.2933 11.4317 16.1883 11.5617 16.0303L12.9497 14.6093C13.1499 14.4334 13.4092 14.3395 13.6757 14.3463H37.2337C37.4977 14.3463 37.5637 14.5043 37.4337 14.6623L36.3097 16.0303C36.1333 16.2095 35.8998 16.3213 35.6497 16.3463L11.7617 16.2933Z" fill="#2CFFCA"/>
<path d="M0.765084 22.3462C0.498084 22.3462 0.431084 22.2382 0.565084 22.0762L1.96708 20.6162C2.16773 20.4368 2.42901 20.3403 2.69808 20.3462H33.1471C33.4141 20.3462 33.5471 20.5082 33.4811 20.6702L32.9471 21.9702C32.8918 22.0787 32.8048 22.1678 32.6976 22.2257C32.5904 22.2836 32.4682 22.3075 32.3471 22.2942L0.765084 22.3462Z" fill="#2CFFCA"/>
<path d="M17.758 28.2932C17.498 28.2932 17.433 28.1352 17.563 27.9772L18.472 26.6622C18.553 26.5681 18.6523 26.4915 18.7639 26.4371C18.8755 26.3828 18.997 26.3518 19.121 26.3462H32.108C32.1588 26.3405 32.2101 26.3459 32.2586 26.362C32.307 26.3782 32.3513 26.4047 32.3885 26.4397C32.4256 26.4747 32.4546 26.5175 32.4736 26.5649C32.4925 26.6123 32.5008 26.6633 32.498 26.7142L32.368 27.9772C32.368 28.1882 32.108 28.3452 31.913 28.3452L17.758 28.2932Z" fill="#2CFFCA"/>
<path d="M85.7362 15.2132C81.5502 16.2802 78.6932 17.0802 74.5732 18.1462C73.5732 18.4132 73.5102 18.4792 72.6462 17.4792C71.8121 16.4077 70.7438 15.5412 69.5232 14.9462C65.3372 12.8792 61.2842 13.4792 57.4962 15.9462C55.3414 17.2634 53.5772 19.1318 52.3857 21.3585C51.1942 23.5853 50.6186 26.0897 50.7182 28.6132C50.6864 31.1499 51.5793 33.6113 53.2301 35.5376C54.8809 37.4639 57.1766 38.7232 59.6882 39.0802C61.7916 39.3912 63.9398 39.149 65.9212 38.3775C67.9026 37.606 69.6489 36.3317 70.9882 34.6802C71.5882 33.9472 72.1182 33.1472 72.7822 32.2132H59.9542C58.5542 32.2132 58.2262 31.3462 58.6912 30.2132C59.5552 28.1462 61.1502 24.6802 62.0802 22.9462C62.2224 22.6254 62.4555 22.3533 62.7507 22.1637C63.046 21.974 63.3903 21.8751 63.7412 21.8792H87.9282C87.7952 23.6792 87.7952 25.4792 87.5282 27.2792C86.8412 32.0239 84.9677 36.5184 82.0812 40.3462C79.871 43.434 77.0489 46.0337 73.7904 47.9834C70.5319 49.9332 66.907 51.1912 63.1412 51.6792C60.0191 52.1877 56.8265 52.0601 53.755 51.304C50.6835 50.5479 47.7965 49.1789 45.2672 47.2792C42.9026 45.5408 40.9295 43.3251 39.4757 40.7755C38.022 38.226 37.12 35.3995 36.8282 32.4792C36.4223 29.0112 36.713 25.497 37.6832 22.1429C38.6534 18.7887 40.2836 15.662 42.4782 12.9462C46.9697 6.85588 53.6316 2.72646 61.0842 1.4132C67.3302 0.279196 73.3102 1.0132 78.6922 4.6792C82.1368 6.97884 84.8199 10.2508 86.4002 14.0792C86.7992 14.6792 86.5332 15.0132 85.7362 15.2132Z" fill="#2CFFCA"/>
<path fill-rule="evenodd" clip-rule="evenodd" d="M91.516 46.2125C96.0481 50.0383 101.798 52.1191 107.729 52.0795C108.322 52.0109 108.922 51.958 109.527 51.9046C110.687 51.8023 111.866 51.6983 113.045 51.4795C119.103 50.3181 124.665 47.3422 128.993 42.9465C131.993 40.0734 134.254 36.5182 135.584 32.5833C136.915 28.6485 137.275 24.4504 136.634 20.3465C136.255 17.334 135.219 14.4415 133.6 11.8727C131.981 9.30399 129.819 7.12162 127.265 5.47949C121.484 1.54649 115.105 0.879493 108.327 2.08049C100.422 3.48049 94.573 6.81349 89.722 13.2135C85.204 19.1465 83.14 25.8135 84.34 33.3465C85.0934 38.3632 87.6436 42.9354 91.516 46.2125ZM123.344 22.9464C123.453 23.6753 123.52 24.4098 123.544 25.1464C123.211 30.8794 120.354 35.1464 115.105 37.8794C113.454 38.7801 111.617 39.2851 109.737 39.3545C107.857 39.4239 105.988 39.0559 104.274 38.2794C101.949 37.218 100.067 35.3791 98.9508 33.0793C97.835 30.7796 97.5559 28.1628 98.1614 25.6794C98.7045 22.7991 100.105 20.1502 102.18 18.0801C104.256 16.01 106.908 14.6155 109.789 14.0794C111.266 13.6969 112.805 13.6271 114.31 13.8744C115.815 14.1217 117.252 14.6807 118.528 15.5155C119.804 16.3503 120.892 17.4425 121.721 18.7221C122.55 20.0018 123.103 21.4406 123.344 22.9464Z" fill="#2CFFCA"/>
</g>
<defs>
<clipPath id="clip0_1_93">
<rect width="136.394" height="51.156" fill="white" transform="translate(0.498047 0.923096)"/>
</clipPath>
</defs>
</svg>
