<svg width="141" height="55" viewBox="0 0 141 55" fill="none" xmlns="http://www.w3.org/2000/svg">
<g clip-path="url(#clip0_1_111)">
<path d="M52.8981 53.8853C52.4416 53.885 51.9933 53.7647 51.5981 53.5363L47.4611 51.0733C46.8431 50.7263 47.1451 50.6033 47.3481 50.5323C48.0048 50.3247 48.6333 50.0365 49.2191 49.6743C49.268 49.651 49.322 49.6408 49.376 49.6446C49.43 49.6485 49.482 49.6663 49.5271 49.6963L52.7051 51.5963C52.7644 51.627 52.8303 51.6431 52.8971 51.6431C52.9639 51.6431 53.0298 51.627 53.0891 51.5963L65.4821 44.4013C65.54 44.3661 65.5878 44.3166 65.6209 44.2576C65.654 44.1985 65.6713 44.1319 65.6711 44.0643V29.6853C65.6713 29.6164 65.6538 29.5486 65.6201 29.4885C65.5865 29.4284 65.5379 29.3781 65.4791 29.3423L53.0921 22.1593C53.0341 22.1254 52.9682 22.1076 52.9011 22.1076C52.834 22.1076 52.7681 22.1254 52.7101 22.1593L40.3251 29.3443C40.2652 29.3788 40.2153 29.4283 40.1803 29.4879C40.1452 29.5475 40.1262 29.6151 40.1251 29.6843V44.0613C40.1248 44.1289 40.1425 44.1954 40.1762 44.2541C40.2099 44.3127 40.2585 44.3614 40.3171 44.3953L43.7111 46.3663C45.5541 47.2923 46.6801 46.2013 46.6801 45.1033V30.9133C46.6796 30.8659 46.6885 30.8189 46.7064 30.775C46.7243 30.7311 46.7509 30.6913 46.7844 30.6578C46.818 30.6244 46.8579 30.598 46.9018 30.5802C46.9457 30.5624 46.9927 30.5536 47.0401 30.5543H48.6101C48.6572 30.5541 48.7038 30.5633 48.7473 30.5813C48.7908 30.5994 48.8303 30.6258 48.8635 30.6592C48.8967 30.6926 48.923 30.7323 48.9408 30.7759C48.9585 30.8195 48.9675 30.8662 48.9671 30.9133V45.1133C48.9671 47.5833 47.6271 49.0023 45.2971 49.0023C44.2899 49.0196 43.2987 48.749 42.4401 48.2223L39.1921 46.3353C38.7961 46.1023 38.4678 45.7699 38.2398 45.3711C38.0118 44.9722 37.8919 44.5207 37.8921 44.0613V29.6853C37.891 29.2262 38.0105 28.7749 38.2387 28.3765C38.4668 27.9781 38.7956 27.6466 39.1921 27.4153L51.5921 20.2193C51.9912 19.9994 52.4394 19.884 52.8951 19.884C53.3508 19.884 53.799 19.9994 54.1981 20.2193L66.5881 27.4193C66.9841 27.6506 67.3127 27.9813 67.5415 28.3788C67.7702 28.7763 67.8911 29.2267 67.8921 29.6853V44.0643C67.8914 44.523 67.7711 44.9736 67.5432 45.3717C67.3152 45.7697 66.9874 46.1015 66.5921 46.3343L54.2021 53.5293C53.8041 53.7597 53.352 53.8801 52.8921 53.8783" fill="#38B32D"/>
<path d="M57.209 44.0292C52.094 44.0292 51.021 41.4932 51.021 39.3652C51.0192 39.319 51.0265 39.2728 51.0425 39.2295C51.0586 39.1861 51.0831 39.1463 51.1146 39.1125C51.1462 39.0786 51.1841 39.0514 51.2262 39.0323C51.2683 39.0132 51.3138 39.0026 51.36 39.0012H52.87C52.9536 39.0038 53.0334 39.0365 53.0948 39.0933C53.1561 39.1501 53.1949 39.2271 53.204 39.3102C53.432 40.9722 54.111 41.8102 57.204 41.8102C59.668 41.8102 60.716 41.2102 60.716 39.7972C60.716 38.9852 60.416 38.3812 56.59 37.9762C53.39 37.6352 51.41 36.8762 51.41 34.1072C51.409 31.5612 53.399 30.0442 56.732 30.0442C60.475 30.0442 62.332 31.4442 62.564 34.4632C62.5722 34.5652 62.5394 34.6663 62.473 34.7442C62.4421 34.7802 62.404 34.8092 62.3611 34.8293C62.3182 34.8495 62.2715 34.8604 62.224 34.8612H60.706C60.627 34.8591 60.5511 34.8296 60.4912 34.7779C60.4314 34.7261 60.3914 34.6552 60.378 34.5772C60.012 32.8292 59.128 32.2692 56.726 32.2692C54.037 32.2692 53.726 33.2812 53.726 34.0392C53.726 34.9592 54.095 35.2282 57.726 35.7462C61.32 36.2612 63.026 36.9882 63.026 39.7162C63.021 42.4672 60.894 44.0442 57.194 44.0442L48.894 35.7442" fill="#38B32D"/>
<path d="M89.2141 54.5012C88.9302 54.5012 88.6512 54.4267 88.4051 54.2852L74.9921 46.5292C74.7468 46.3866 74.543 46.1824 74.4008 45.9369C74.2585 45.6914 74.1828 45.413 74.1811 45.1292V29.6202C74.1816 29.3363 74.2568 29.0574 74.3992 28.8117C74.5415 28.5659 74.746 28.362 74.9921 28.2202L88.4011 20.4692C88.6468 20.3269 88.9257 20.252 89.2096 20.252C89.4935 20.252 89.7724 20.3269 90.0181 20.4692L93.3811 22.4012C93.4674 22.4511 93.5654 22.4773 93.6651 22.4772C93.7642 22.4773 93.8615 22.4511 93.9471 22.4012C94.0333 22.3515 94.1049 22.2799 94.1548 22.1937C94.2046 22.1076 94.2309 22.0098 94.2311 21.9102V1.31324C94.2304 1.17191 94.2668 1.03287 94.3365 0.909931C94.4062 0.786992 94.5069 0.684435 94.6285 0.61245C94.7502 0.540464 94.8885 0.501556 95.0298 0.49959C95.1711 0.497624 95.3105 0.532669 95.4341 0.601243L103.411 5.06024C103.663 5.20114 103.873 5.40668 104.02 5.65574C104.166 5.90479 104.244 6.18835 104.244 6.47724V45.1222C104.242 45.4059 104.167 45.6841 104.025 45.9296C103.883 46.1751 103.679 46.3794 103.434 46.5222L90.0241 54.2852C89.7775 54.4266 89.4983 54.501 89.2141 54.5012ZM89.1771 31.6402C89.1068 31.6412 89.038 31.6601 88.9771 31.6952L84.3771 34.3572C84.3161 34.3935 84.2655 34.445 84.2305 34.5068C84.1954 34.5685 84.177 34.6383 84.1771 34.7092V40.0332C84.1765 40.1041 84.1946 40.1738 84.2298 40.2353C84.2649 40.2968 84.3158 40.3478 84.3771 40.3832L88.9771 43.0422C89.0381 43.0767 89.107 43.0948 89.1771 43.0948C89.2472 43.0948 89.3161 43.0767 89.3771 43.0422L93.9771 40.3832C94.0384 40.3478 94.0893 40.2968 94.1244 40.2353C94.1595 40.1738 94.1777 40.1041 94.1771 40.0332V34.7092C94.1775 34.6382 94.1592 34.5683 94.1241 34.5065C94.089 34.4448 94.0383 34.3933 93.9771 34.3572L89.3771 31.6952C89.3165 31.6603 89.248 31.6413 89.1781 31.6402H89.1771ZM125.86 54.1402C125.579 54.14 125.303 54.0662 125.06 53.9262L111.739 46.3262C111.491 46.1836 111.285 45.9782 111.142 45.7307C110.999 45.4831 110.923 45.2022 110.923 44.9162V29.4162C110.924 29.1325 111 28.8541 111.142 28.6085C111.284 28.363 111.488 28.1588 111.733 28.0162L125.139 20.2672C125.386 20.1239 125.666 20.0484 125.951 20.0484C126.236 20.0484 126.516 20.1239 126.763 20.2672L140.087 28.0122C140.331 28.1556 140.534 28.3601 140.675 28.6055C140.817 28.851 140.892 29.129 140.893 29.4122V33.1702C140.893 33.4535 140.818 33.7317 140.677 33.9773C140.536 34.2229 140.333 34.4273 140.088 34.5702L132.046 39.2492C131.923 39.3202 131.783 39.3576 131.641 39.3576C131.499 39.3576 131.359 39.3202 131.236 39.2492C131.114 39.1778 131.012 39.0757 130.94 38.953C130.869 38.8302 130.831 38.6911 130.83 38.5492V34.7242C130.831 34.5827 130.794 34.4435 130.724 34.3206C130.654 34.1978 130.552 34.0955 130.43 34.0242L126.23 31.5992C126.108 31.5277 125.968 31.49 125.827 31.49C125.685 31.49 125.546 31.5277 125.423 31.5992L121.223 34.0242C121.1 34.095 120.998 34.197 120.926 34.3198C120.855 34.4427 120.817 34.5822 120.817 34.7242V39.5872C120.817 39.7297 120.855 39.8695 120.927 39.9924C120.999 40.1154 121.102 40.2171 121.226 40.2872L134.714 48.0402C134.839 48.1114 134.942 48.2143 135.014 48.3385C135.085 48.4626 135.123 48.6036 135.122 48.747C135.122 48.8904 135.083 49.031 135.01 49.1546C134.937 49.2781 134.833 49.3802 134.708 49.4502L126.65 53.9352C126.409 54.0697 126.137 54.1406 125.861 54.1412L125.86 54.1402ZM1.72509 50.8212C1.58381 50.8208 1.4454 50.7813 1.32509 50.7072C1.20241 50.6364 1.10074 50.5343 1.03046 50.4113C0.960185 50.2883 0.923822 50.1489 0.92509 50.0072L0.89209 29.2012C0.892869 28.916 0.968096 28.6358 1.11033 28.3885C1.25257 28.1412 1.45689 27.9354 1.70309 27.7912L15.1031 20.0672C15.3291 19.9373 15.5835 19.8645 15.8441 19.8552H15.9831C16.2425 19.8638 16.4958 19.9366 16.7201 20.0672L30.1201 27.7912C30.3664 27.9348 30.5708 28.1404 30.7128 28.3877C30.8548 28.6349 30.9293 28.9151 30.9291 29.2002L30.9121 50.0012C30.9123 50.1427 30.8755 50.2817 30.8054 50.4045C30.7352 50.5274 30.6341 50.6297 30.5121 50.7012C30.3895 50.7745 30.2494 50.8133 30.1066 50.8133C29.9638 50.8133 29.8236 50.7745 29.7011 50.7012L21.7381 46.1342C21.4929 45.9896 21.2893 45.784 21.1471 45.5375C21.0048 45.291 20.9287 45.0119 20.9261 44.7272V35.0092C20.9252 34.7255 20.8499 34.4469 20.7078 34.2012C20.5657 33.9556 20.3617 33.7515 20.1161 33.6092L16.7251 31.6532C16.4814 31.5091 16.2032 31.4338 15.9201 31.4352C15.6355 31.4346 15.3559 31.5098 15.1101 31.6532L11.7151 33.6012C11.4699 33.7437 11.2663 33.948 11.1245 34.1936C10.9828 34.4392 10.9078 34.7177 10.9071 35.0012V44.7202C10.9069 45.0051 10.832 45.285 10.6899 45.5318C10.5477 45.7787 10.3433 45.984 10.0971 46.1272L2.12709 50.6972C2.00733 50.7754 1.86805 50.8183 1.72509 50.8212Z" fill="white"/>
<path d="M125.732 33.5893C125.781 33.56 125.837 33.5444 125.894 33.5444C125.951 33.5444 126.006 33.56 126.055 33.5893L128.731 35.1723C128.781 35.2021 128.821 35.2442 128.85 35.2945C128.878 35.3449 128.892 35.4016 128.892 35.4593V38.6293C128.892 38.687 128.878 38.7438 128.85 38.7941C128.821 38.8444 128.781 38.8865 128.731 38.9163L126.054 40.4993C126.005 40.5287 125.95 40.5442 125.893 40.5442C125.836 40.5442 125.78 40.5287 125.731 40.4993L123.057 38.9163C123.007 38.8871 122.965 38.8452 122.936 38.7948C122.907 38.7445 122.892 38.6874 122.892 38.6293V35.4593C122.891 35.4016 122.906 35.3446 122.934 35.2942C122.962 35.2439 123.003 35.2018 123.053 35.1723L125.732 33.5893Z" fill="#38B32D"/>
</g>
<defs>
<clipPath id="clip0_1_111">
<rect width="140" height="54" fill="white" transform="translate(0.89209 0.501221)"/>
</clipPath>
</defs>
</svg>
