<svg width="97" height="86" viewBox="0 0 97 86" fill="none" xmlns="http://www.w3.org/2000/svg">
<path fill-rule="evenodd" clip-rule="evenodd" d="M96.498 42.51C96.498 36.187 88.534 30.195 76.324 26.479C79.142 14.105 77.889 4.261 72.371 1.109C71.0382 0.365406 69.5318 -0.0108199 68.0061 0.0186336V0C62.626 0 55.582 3.813 48.459 10.428C41.336 3.852 34.292 0.078 28.911 0.078V4.416C32.962 4.416 38.969 7.626 45.348 13.482C42.4348 16.529 39.7345 19.7727 37.266 23.19C33.0735 23.617 28.9154 24.332 24.821 25.33C24.371 23.384 24.038 21.497 23.803 19.688C22.883 12.256 24.018 6.478 26.66 4.941C27.3513 4.57414 28.1283 4.3994 28.91 4.435V0.1C27.366 0.0664288 25.8405 0.441417 24.488 1.187C18.99 4.339 17.757 14.163 20.598 26.5C8.42305 30.233 0.498047 36.206 0.498047 42.51C0.498047 48.833 8.46205 54.825 20.672 58.541C17.854 70.915 19.107 80.759 24.625 83.911C25.9696 84.6596 27.4896 85.0355 29.028 85C34.409 85 41.454 81.187 48.576 74.572C55.699 81.148 62.743 84.922 68.124 84.922C69.6683 84.955 71.1937 84.5793 72.546 83.833C78.046 80.681 79.277 70.856 76.44 58.522C88.5731 54.805 96.498 48.813 96.498 42.51ZM51.569 13.463C57.9386 7.57669 63.9184 4.34753 67.988 4.33802V4.358C68.7627 4.33404 69.5306 4.50821 70.219 4.864C72.8801 6.382 74.035 12.164 73.135 19.592C72.9201 21.421 72.568 23.347 72.135 25.312C68.0444 24.3316 63.8933 23.6231 59.709 23.191C57.2154 19.7707 54.496 16.5208 51.569 13.463ZM71.021 29.5331C70.298 32.0431 69.398 34.6301 68.379 37.2181C67.579 35.6621 66.735 34.1051 65.816 32.5491C64.916 30.9961 63.957 29.4751 62.998 27.9961C65.777 28.4051 68.457 28.9101 71.021 29.5331ZM57.3427 57.6839C58.9667 55.3689 60.5327 52.8779 62.0587 50.2519C63.5257 47.7039 64.8757 45.0969 66.1087 42.4899C64.8827 39.8766 63.5261 37.2956 62.0387 34.7469C60.5061 32.1336 58.9277 29.6692 57.3037 27.3539C54.4077 27.1199 51.4527 26.9839 48.4977 26.9839C45.5237 26.9839 42.5687 27.1199 39.6527 27.3729C38.0287 29.6839 36.4637 32.1789 34.9377 34.8049C33.4697 37.3539 32.0997 39.9609 30.8867 42.5679C32.1127 45.1786 33.4694 47.7596 34.9567 50.3109C36.4894 52.9242 38.0677 55.3882 39.6917 57.7029C42.5887 57.9369 45.5427 58.0729 48.4977 58.0729C51.4727 58.0729 54.4267 57.9369 57.3427 57.6839ZM68.3786 47.7241C69.4356 50.3311 70.3356 52.9381 71.0786 55.4671C68.5166 56.0901 65.8166 56.6151 63.0166 57.0241C63.9756 55.5241 64.9346 53.9891 65.8346 52.4131C66.7346 50.8561 67.5756 49.2801 68.3786 47.7241ZM43.0967 62.2568C44.802 64.4242 46.6177 66.5022 48.5367 68.4828C50.4414 66.5061 52.2377 64.4277 53.9177 62.2568C52.1367 62.3568 50.3177 62.3928 48.4777 62.3928C46.6577 62.3928 44.8577 62.3348 43.0967 62.2568ZM33.9791 57.0238C31.2001 56.6148 28.5191 56.1088 25.9561 55.4868C26.6801 52.9768 27.5801 50.3898 28.5981 47.8018C29.3981 49.3578 30.2421 50.9148 31.1611 52.4708C32.0801 54.0268 33.0201 55.5448 33.9791 57.0238ZM53.8786 22.7631C52.1733 20.5958 50.3576 18.5177 48.4386 16.5371C46.5339 18.5135 44.7377 20.5915 43.0576 22.7621C44.8386 22.6651 46.6586 22.6261 48.4976 22.6261C50.3176 22.6261 52.1176 22.6851 53.8786 22.7631ZM33.9595 27.9961C32.9975 29.4961 32.0415 31.0311 31.1415 32.6071C30.2415 34.1631 29.3975 35.7201 28.5975 37.2761C27.5415 34.6691 26.6415 32.0621 25.8975 29.5331C28.4605 28.9301 31.1615 28.4051 33.9595 27.9961ZM4.8418 42.5092C4.8418 45.5642 9.3228 49.4162 16.2498 52.3542C17.9518 53.0742 19.7918 53.7352 21.7258 54.3382C22.9028 50.3136 24.3542 46.3744 26.0698 42.5482C24.3364 38.7031 22.8664 34.7446 21.6698 30.7002C19.7718 31.3002 17.9328 31.9452 16.2498 32.6652C9.3228 35.5832 4.8418 39.4542 4.8418 42.5092ZM26.7771 80.155C24.1161 78.638 22.9601 72.86 23.8601 65.428C24.0771 63.599 24.4291 61.673 24.8601 59.708C28.9505 60.6883 33.1012 61.3969 37.2851 61.829C39.7788 65.2493 42.4982 68.4992 45.4251 71.557C39.0461 77.451 33.0601 80.681 28.9891 80.681C28.2198 80.6897 27.4602 80.509 26.7771 80.155ZM70.3354 80.077C72.9774 78.5399 74.1124 72.7619 73.1924 65.3299C72.9539 63.4263 72.6144 61.5366 72.1754 59.6689C68.0811 60.6669 63.9229 61.3819 59.7304 61.8089C57.262 65.2263 54.5616 68.4699 51.6484 71.5169C58.0274 77.3689 64.0344 80.5829 68.0854 80.5829C68.8672 80.6185 69.6442 80.4438 70.3354 80.077ZM80.7263 52.3537C79.0433 53.0737 77.2043 53.7157 75.3063 54.3187C74.1087 50.2741 72.6377 46.3157 70.9033 42.4707C72.6189 38.6445 74.0703 34.7053 75.2473 30.6807C77.1843 31.2807 79.0243 31.9457 80.7473 32.6647C87.6743 35.6027 92.1553 39.4547 92.1553 42.5087C92.1343 45.5637 87.6533 49.4357 80.7263 52.3537ZM57.498 42.5C57.498 47.1944 53.6925 51 48.998 51C44.3036 51 40.498 47.1944 40.498 42.5C40.498 37.8056 44.3036 34 48.998 34C53.6925 34 57.498 37.8056 57.498 42.5Z" fill="#61DAFB"/>
</svg>
