<svg xmlns="http://www.w3.org/2000/svg" xmlns:xlink="http://www.w3.org/1999/xlink" width="23.17138671875" height="23.15380859375" viewBox="0 0 23.17138671875 23.15380859375" fill="none"><g opacity="1"  transform="translate(0 0)"><mask id="mask-0" fill="white"><path d="M0 0L23.1714 0L23.1714 23.1539L0 23.1539L0 0Z"  ></path></mask><path d="M0 0L23.1714 0L23.1714 23.1539L0 23.1539L0 0Z"  ></path><g mask="url(#mask-0)"><path id="Path 179485" fill-rule="evenodd" style="fill:#326D4A" d="M15.9145 13.7884C15.9768 13.8377 16.038 13.8769 16.0882 13.9272C18.2906 16.1275 20.4917 18.3289 22.6936 20.5298C23.1135 20.9494 23.2635 21.4521 23.1161 22.0227C22.9705 22.5865 22.6007 22.9587 22.0331 23.1007C21.4705 23.2413 20.9731 23.1029 20.5581 22.6878C18.3825 20.5113 16.2058 18.3359 14.0304 16.1592C13.95 16.0789 13.8786 15.9896 13.803 15.9046C11.6344 17.357 9.30112 17.8396 6.78326 17.2676C4.65503 16.784 2.93927 15.6323 1.66404 13.8657C-0.93915 10.2598 -0.438162 5.34498 2.8172 2.31437C5.97653 -0.626868 10.9504 -0.776991 14.2642 1.93448C17.7489 4.78556 18.6159 9.87113 15.9145 13.7884ZM15.9258 8.75124C15.934 4.814 12.7217 1.58409 8.78577 1.57185C4.8497 1.5596 1.59587 4.77708 1.58382 8.69358C1.57158 12.676 4.77237 15.8983 8.75087 15.9087C12.7016 15.9191 15.9176 12.7109 15.9258 8.75124Z"></path></g></g></svg>