<svg width="156" height="57" viewBox="0 0 156 57" fill="none" xmlns="http://www.w3.org/2000/svg">
<g clip-path="url(#clip0_1_67)">
<path d="M102.436 16.935C101.098 16.8856 99.7719 17.1996 98.5984 17.8437C97.4248 18.4878 96.4477 19.4379 95.7709 20.593H95.6709V17.553H90.2949V39.912H95.7709V27.235C95.7709 24.196 97.6829 22.083 100.318 22.083C102.798 22.083 104.658 23.577 104.658 26.205V39.963H110.135V25.335C110.186 20.435 107.086 16.935 102.436 16.935Z" fill="white"/>
<path d="M81.9711 30.4852C81.9711 33.4732 80.2711 35.5342 77.4761 35.5342C74.9451 35.5342 73.3431 34.0922 73.3431 31.4642V17.5542H67.8711V32.4942C67.8711 37.3882 70.6611 40.5822 75.6711 40.5822C76.9309 40.6577 78.1882 40.3969 79.314 39.8266C80.4399 39.2562 81.3938 38.3967 82.0781 37.3362H82.2331V39.9642H87.5031V17.5542H82.0281V30.4852H81.9711Z" fill="white"/>
<path d="M113.08 17.5542H118.556V39.9132H113.08V17.5542Z" fill="white"/>
<path d="M113.08 10.5991H118.556V15.0811H113.08V10.5991Z" fill="white"/>
<path d="M149.608 17.5544L146.353 27.6544C145.83 29.2601 145.398 30.8944 145.061 32.5494H144.906C144.906 32.5494 144.183 29.7154 143.46 27.6544L139.791 17.5544H133.901L139.946 33.4734C141.238 36.8734 141.646 38.3154 141.646 39.5524C141.646 41.4074 140.665 42.5924 138.34 42.5924H136.226V47.2804H139.74C144.286 47.2804 145.888 45.4804 147.593 40.5314L155.501 17.6054H149.611L149.608 17.5544Z" fill="white"/>
<path d="M128.786 33.3691V21.5211H132.3V17.6051H128.786V10.5991H123.31V17.5541H120.21V21.4691H123.31V34.6061C123.31 38.8311 126.51 39.9641 129.41 39.9641C130.411 39.9942 131.413 39.9608 132.41 39.8641V35.5331H131.01C130.711 35.5873 130.404 35.5693 130.114 35.4807C129.823 35.3921 129.558 35.2354 129.341 35.0237C129.123 34.812 128.959 34.5515 128.863 34.2637C128.766 33.9759 128.74 33.6692 128.786 33.3691Z" fill="white"/>
<path fill-rule="evenodd" clip-rule="evenodd" d="M27.571 6.42622L50.46 0.501221L56.608 22.7612L53.146 28.5312L56.608 34.3012L50.46 56.5012L27.571 50.5242L24.161 44.7032L17.29 44.7552L0.498047 28.4752L17.29 12.1952L24.161 12.2472L27.571 6.42622ZM37.0781 28.4774L47.1531 45.3774L52.0101 28.4774L47.1531 11.5774L37.0781 28.4774ZM24.7303 43.7243L12.0713 31.2053H32.2213L42.2963 48.1053L24.7303 43.7243ZM42.2455 8.79517L24.7305 13.1742L12.0205 25.6952H32.1705L42.2455 8.79517Z" fill="white"/>
</g>
<defs>
<clipPath id="clip0_1_67">
<rect width="155" height="56" fill="white" transform="translate(0.498047 0.501221)"/>
</clipPath>
</defs>
</svg>
