<svg xmlns="http://www.w3.org/2000/svg" xmlns:xlink="http://www.w3.org/1999/xlink" width="20.97265625" height="19.798828125" viewBox="0 0 20.97265625 19.798828125" fill="none"><g opacity="1"  transform="translate(0 0)"><mask id="mask-0" fill="white"><path d="M0 0L20.9727 0L20.9727 19.7989L0 19.7989L0 0Z"  ></path></mask><path d="M0 0L20.9727 0L20.9727 19.7989L0 19.7989L0 0Z"  ></path><g mask="url(#mask-0)"><path id="Path 179483" fill-rule="evenodd" style="fill:#FFFFFF" d="M10.4889 19.7986C7.36695 19.7986 4.24502 19.7996 1.12296 19.7979C0.159613 19.7975 -0.136873 19.4875 0.055478 18.5486C0.701115 15.3979 2.36078 12.9408 5.12772 11.2554C5.42036 11.0772 5.60462 11.1102 5.87019 11.3317C8.65518 13.6554 12.324 13.6595 15.0959 11.3329C15.4025 11.0755 15.6048 11.1094 15.8953 11.2882C18.6321 12.9724 20.2743 15.4178 20.9167 18.543C21.1099 19.4829 20.8136 19.7974 19.8548 19.7979C16.7329 19.7996 13.6108 19.7986 10.4889 19.7986Z"></path></g><g mask="url(#mask-0)"><path id="Path 179484" fill-rule="evenodd" style="fill:#FFFFFF" d="M10.4828 11.897C7.13374 11.8951 4.52466 9.27072 4.5293 5.90868C4.53368 2.68381 7.17779 -0.0129544 10.4573 4.58867e-05C13.9543 0.0138421 16.468 2.77534 16.447 6.0481C16.4264 9.27908 13.7687 11.899 10.4828 11.897Z"></path></g></g></svg>