<svg xmlns="http://www.w3.org/2000/svg" xmlns:xlink="http://www.w3.org/1999/xlink" width="36.337890625" height="37.6044921875" viewBox="0 0 36.337890625 37.6044921875" fill="none"><g opacity="1"  transform="translate(0 0)"><path id="Path 179467" fill-rule="evenodd" style="fill:#FFFFFF" opacity="1" d="M15.0464 30.2305L17.8853 30.2305L17.8853 37.6039L15.0464 37.6039L15.0464 30.2305Z"></path><path id="Path 179468" fill-rule="evenodd" style="fill:#FFFFFF" opacity="1" d="M35.2734 0L6.88431 0C6.60652 0 6.33982 0.112905 6.14104 0.314233L0.321291 6.21294C0.0113399 6.52717 -0.084584 7.005 0.0784312 7.42177C0.241724 7.83825 0.631796 8.11072 1.06456 8.11072L2.12915 8.11072L2.12915 20.8344C1.59769 21.0297 1.11973 21.3701 0.747403 21.8304C0.138869 22.5833 -0.115357 23.5764 0.0498758 24.5554C0.279705 25.9163 1.31407 26.9909 2.62402 27.2297C2.81282 27.264 3.00189 27.2809 3.18958 27.2809C3.93978 27.2809 4.66753 27.0108 5.24695 26.505C5.97193 25.8728 6.38751 24.9462 6.38751 23.9635C6.38751 23.3526 5.91094 22.8575 5.32292 22.8575C4.7349 22.8575 4.25833 23.3526 4.25833 23.9635C4.25833 24.291 4.11943 24.6 3.87768 24.8111C3.63233 25.0252 3.31794 25.1104 2.99191 25.0511C2.56192 24.9724 2.2223 24.6199 2.14689 24.1732C2.08978 23.8348 2.17185 23.5078 2.37783 23.2529C2.58105 23.0018 2.87852 22.8575 3.19374 22.8575C3.78176 22.8575 4.25833 22.3624 4.25833 21.7515L4.25833 8.11072L27.1115 8.11072L27.1115 36.4983C27.1115 37.1091 27.5881 37.6043 28.1761 37.6043L33.8539 37.6043C34.4419 37.6043 34.9185 37.1091 34.9185 36.4983L34.9185 8.11072L35.2734 8.11072C35.8614 8.11072 36.3379 7.61561 36.3379 7.00471L36.3379 1.10601C36.3379 0.495111 35.8614 0 35.2734 0ZM29.2407 15.5737L32.3485 18.8021L29.2407 22.0309L29.2407 15.5737ZM29.2407 27.3711L32.3485 30.5995L29.2407 33.8283L29.2407 27.3711ZM29.6818 24.7008L32.7893 21.4724L32.7893 27.9296L29.6818 24.7008ZM29.6818 12.9034L32.7893 9.67497L32.7893 16.1322L29.6818 12.9034ZM34.2088 2.21201L34.2088 4.33474L32.1658 2.21201L34.2088 2.21201ZM3.68029 5.89871L6.87517 2.66047L9.99214 5.89871L3.68029 5.89871ZM9.45458 2.21201L15.6699 2.21201L12.5621 5.44075L9.45458 2.21201ZM15.1324 5.89871L18.2399 2.67026L21.3478 5.89871L15.1324 5.89871ZM20.8102 2.21201L27.0256 2.21201L23.9177 5.44075L20.8102 2.21201ZM29.5956 2.67026L32.7034 5.89871L26.488 5.89871L29.5956 2.67026ZM31.2839 8.11072L29.2407 10.2335L29.2407 8.11072L31.2839 8.11072ZM30.7464 35.3922L32.7893 33.2698L32.7893 35.3922L30.7464 35.3922Z"></path><path id="Path 179469" fill-rule="evenodd" style="fill:#FFFFFF" opacity="1" d="M23.9175 10.3223L9.01331 10.3223C8.4253 10.3223 7.94873 10.8174 7.94873 11.4283L7.94873 36.4978C7.94873 37.1087 8.4253 37.6038 9.01331 37.6038L12.9168 37.6038L12.9168 29.1244C12.9168 28.5135 13.3934 28.0184 13.9814 28.0184L18.9494 28.0184C19.5375 28.0184 20.014 28.5135 20.014 29.1244L20.014 37.6038L23.9175 37.6038C24.5055 37.6038 24.9821 37.1087 24.9821 36.4978L24.9821 11.4283C24.9821 10.8174 24.5055 10.3223 23.9175 10.3223ZM14.3363 24.7004L12.9168 24.7004C12.3288 24.7004 11.8522 24.2053 11.8522 23.5944C11.8522 22.9835 12.3288 22.4884 12.9168 22.4884L14.3363 22.4884C14.9243 22.4884 15.4008 22.9835 15.4008 23.5944C15.4008 24.2053 14.9243 24.7004 14.3363 24.7004ZM14.3363 20.2763L12.9168 20.2763C12.3288 20.2763 11.8522 19.7812 11.8522 19.1703C11.8522 18.5594 12.3288 18.0643 12.9168 18.0643L14.3363 18.0643C14.9243 18.0643 15.4008 18.5594 15.4008 19.1703C15.4008 19.7812 14.9243 20.2763 14.3363 20.2763ZM14.3363 15.8523L12.9168 15.8523C12.3288 15.8523 11.8522 15.3572 11.8522 14.7463C11.8522 14.1354 12.3288 13.6403 12.9168 13.6403L14.3363 13.6403C14.9243 13.6403 15.4008 14.1354 15.4008 14.7463C15.4008 15.3572 14.9243 15.8523 14.3363 15.8523ZM20.014 24.7004L18.5946 24.7004C18.0066 24.7004 17.53 24.2053 17.53 23.5944C17.53 22.9835 18.0066 22.4884 18.5946 22.4884L20.014 22.4884C20.6021 22.4884 21.0786 22.9835 21.0786 23.5944C21.0786 24.2053 20.6021 24.7004 20.014 24.7004ZM20.014 20.2763L18.5946 20.2763C18.0066 20.2763 17.53 19.7812 17.53 19.1703C17.53 18.5594 18.0066 18.0643 18.5946 18.0643L20.014 18.0643C20.6021 18.0643 21.0786 18.5594 21.0786 19.1703C21.0786 19.7812 20.6021 20.2763 20.014 20.2763ZM20.014 15.8523L18.5946 15.8523C18.0066 15.8523 17.53 15.3572 17.53 14.7463C17.53 14.1354 18.0066 13.6403 18.5946 13.6403L20.014 13.6403C20.6021 13.6403 21.0786 14.1354 21.0786 14.7463C21.0786 15.3572 20.6021 15.8523 20.014 15.8523Z"></path></g></svg>