<svg xmlns="http://www.w3.org/2000/svg" xmlns:xlink="http://www.w3.org/1999/xlink" width="42.22412109375" height="43.8662109375" viewBox="0 0 42.22412109375 43.8662109375" fill="none"><g opacity="1"  transform="translate(0 0)"><g opacity="1"  transform="translate(0 0)"><g opacity="1"  transform="translate(0 0)"><path d="M0 0L32 0L32 32L0 32L0 0Z"  ></path><path id="Vector" fill-rule="evenodd" style="fill:#000000" opacity="1" d="M29.3332 28.3337L27.9998 28.3337L27.9998 13.307C27.9998 12.4803 27.6265 11.707 26.9732 11.2003L25.3332 9.92028L25.3065 6.65362C25.3065 5.92028 24.7065 5.33362 23.9732 5.33362L19.4265 5.33362L17.6398 3.94695C16.6798 3.18695 15.3198 3.18695 14.3598 3.94695L5.0265 11.2003C4.37317 11.707 3.99983 12.4803 3.99983 13.2936L3.93317 28.3337L2.6665 28.3337C2.11984 28.3337 1.6665 28.787 1.6665 29.3337C1.6665 29.8803 2.11984 30.3337 2.6665 30.3337L29.3332 30.3337C29.8798 30.3337 30.3332 29.8803 30.3332 29.3337C30.3332 28.787 29.8798 28.3337 29.3332 28.3337ZM8.6665 17.0003L8.6665 15.0003C8.6665 14.267 9.2665 13.667 9.99983 13.667L12.6665 13.667C13.3998 13.667 13.9998 14.267 13.9998 15.0003L13.9998 17.0003C13.9998 17.7337 13.3998 18.3337 12.6665 18.3337L9.99983 18.3337C9.2665 18.3337 8.6665 17.7337 8.6665 17.0003ZM19.3332 28.3337L12.6665 28.3337L12.6665 24.667C12.6665 23.5603 13.5598 22.667 14.6665 22.667L17.3332 22.667C18.4398 22.667 19.3332 23.5603 19.3332 24.667L19.3332 28.3337ZM23.3332 17.0003C23.3332 17.7337 22.7332 18.3337 21.9998 18.3337L19.3332 18.3337C18.5998 18.3337 17.9998 17.7337 17.9998 17.0003L17.9998 15.0003C17.9998 14.267 18.5998 13.667 19.3332 13.667L21.9998 13.667C22.7332 13.667 23.3332 14.267 23.3332 15.0003L23.3332 17.0003Z"></path></g></g></g></svg>